<svg class="marks" width="954" height="276" viewBox="0 0 954 276" version="1.1" xmlns="http://www.w3.org/2000/svg" xmlns:xlink="http://www.w3.org/1999/xlink"><g transform="translate(87,35)"><g class="mark-group role-frame root"><g transform="translate(0,0)"><path class="background" d="M0.5,0.5h862v200h-862Z" style="fill: none; stroke: #ddd;"></path><g><g class="mark-group role-axis"><g transform="translate(0.5,0.5)"><path class="background" d="M0,0h0v0h0Z" style="pointer-events: none; fill: none;"></path><g><g class="mark-rule role-axis-grid" style="pointer-events: none;"><line transform="translate(0,200)" x2="862" y2="0" style="fill: none; stroke: #ddd; stroke-width: 1; opacity: 1;"></line><line transform="translate(0,156)" x2="862" y2="0" style="fill: none; stroke: #ddd; stroke-width: 1; opacity: 1;"></line><line transform="translate(0,111)" x2="862" y2="0" style="fill: none; stroke: #ddd; stroke-width: 1; opacity: 1;"></line><line transform="translate(0,67)" x2="862" y2="0" style="fill: none; stroke: #ddd; stroke-width: 1; opacity: 1;"></line><line transform="translate(0,22)" x2="862" y2="0" style="fill: none; stroke: #ddd; stroke-width: 1; opacity: 1;"></line></g></g></g></g><g class="mark-group role-axis"><g transform="translate(0.5,200.5)"><path class="background" d="M0,0h0v0h0Z" style="pointer-events: none; fill: none;"></path><g><g class="mark-rule role-axis-tick" style="pointer-events: none;"><line transform="translate(1,0)" x2="0" y2="5" style="fill: none; stroke: #888; stroke-width: 1; opacity: 1;"></line><line transform="translate(6,0)" x2="0" y2="5" style="fill: none; stroke: #888; stroke-width: 1; opacity: 1;"></line><line transform="translate(11,0)" x2="0" y2="5" style="fill: none; stroke: #888; stroke-width: 1; opacity: 1;"></line><line transform="translate(16,0)" x2="0" y2="5" style="fill: none; stroke: #888; stroke-width: 1; opacity: 1;"></line><line transform="translate(21,0)" x2="0" y2="5" style="fill: none; stroke: #888; stroke-width: 1; opacity: 1;"></line><line transform="translate(26,0)" x2="0" y2="5" style="fill: none; stroke: #888; stroke-width: 1; opacity: 1;"></line><line transform="translate(31,0)" x2="0" y2="5" style="fill: none; stroke: #888; stroke-width: 1; opacity: 1;"></line><line transform="translate(36,0)" x2="0" y2="5" style="fill: none; stroke: #888; stroke-width: 1; opacity: 1;"></line><line transform="translate(41,0)" x2="0" y2="5" style="fill: none; stroke: #888; stroke-width: 1; opacity: 1;"></line><line transform="translate(46,0)" x2="0" y2="5" style="fill: none; stroke: #888; stroke-width: 1; opacity: 1;"></line><line transform="translate(51,0)" x2="0" y2="5" style="fill: none; stroke: #888; stroke-width: 1; opacity: 1;"></line><line transform="translate(56,0)" x2="0" y2="5" style="fill: none; stroke: #888; stroke-width: 1; opacity: 1;"></line><line transform="translate(61,0)" x2="0" y2="5" style="fill: none; stroke: #888; stroke-width: 1; opacity: 1;"></line><line transform="translate(66,0)" x2="0" y2="5" style="fill: none; stroke: #888; stroke-width: 1; opacity: 1;"></line><line transform="translate(71,0)" x2="0" y2="5" style="fill: none; stroke: #888; stroke-width: 1; opacity: 1;"></line><line transform="translate(76,0)" x2="0" y2="5" style="fill: none; stroke: #888; stroke-width: 1; opacity: 1;"></line><line transform="translate(81,0)" x2="0" y2="5" style="fill: none; stroke: #888; stroke-width: 1; opacity: 1;"></line><line transform="translate(87,0)" x2="0" y2="5" style="fill: none; stroke: #888; stroke-width: 1; opacity: 1;"></line><line transform="translate(92,0)" x2="0" y2="5" style="fill: none; stroke: #888; stroke-width: 1; opacity: 1;"></line><line transform="translate(97,0)" x2="0" y2="5" style="fill: none; stroke: #888; stroke-width: 1; opacity: 1;"></line><line transform="translate(102,0)" x2="0" y2="5" style="fill: none; stroke: #888; stroke-width: 1; opacity: 1;"></line><line transform="translate(107,0)" x2="0" y2="5" style="fill: none; stroke: #888; stroke-width: 1; opacity: 1;"></line><line transform="translate(112,0)" x2="0" y2="5" style="fill: none; stroke: #888; stroke-width: 1; opacity: 1;"></line><line transform="translate(117,0)" x2="0" y2="5" style="fill: none; stroke: #888; stroke-width: 1; opacity: 1;"></line><line transform="translate(122,0)" x2="0" y2="5" style="fill: none; stroke: #888; stroke-width: 1; opacity: 1;"></line><line transform="translate(127,0)" x2="0" y2="5" style="fill: none; stroke: #888; stroke-width: 1; opacity: 1;"></line><line transform="translate(132,0)" x2="0" y2="5" style="fill: none; stroke: #888; stroke-width: 1; opacity: 1;"></line><line transform="translate(137,0)" x2="0" y2="5" style="fill: none; stroke: #888; stroke-width: 1; opacity: 1;"></line><line transform="translate(142,0)" x2="0" y2="5" style="fill: none; stroke: #888; stroke-width: 1; opacity: 1;"></line><line transform="translate(147,0)" x2="0" y2="5" style="fill: none; stroke: #888; stroke-width: 1; opacity: 1;"></line><line transform="translate(152,0)" x2="0" y2="5" style="fill: none; stroke: #888; stroke-width: 1; opacity: 1;"></line><line transform="translate(157,0)" x2="0" y2="5" style="fill: none; stroke: #888; stroke-width: 1; opacity: 1;"></line><line transform="translate(162,0)" x2="0" y2="5" style="fill: none; stroke: #888; stroke-width: 1; opacity: 1;"></line><line transform="translate(167,0)" x2="0" y2="5" style="fill: none; stroke: #888; stroke-width: 1; opacity: 1;"></line><line transform="translate(172,0)" x2="0" y2="5" style="fill: none; stroke: #888; stroke-width: 1; opacity: 1;"></line><line transform="translate(177,0)" x2="0" y2="5" style="fill: none; stroke: #888; stroke-width: 1; opacity: 1;"></line><line transform="translate(182,0)" x2="0" y2="5" style="fill: none; stroke: #888; stroke-width: 1; opacity: 1;"></line><line transform="translate(187,0)" x2="0" y2="5" style="fill: none; stroke: #888; stroke-width: 1; opacity: 1;"></line><line transform="translate(192,0)" x2="0" y2="5" style="fill: none; stroke: #888; stroke-width: 1; opacity: 1;"></line><line transform="translate(197,0)" x2="0" y2="5" style="fill: none; stroke: #888; stroke-width: 1; opacity: 1;"></line><line transform="translate(202,0)" x2="0" y2="5" style="fill: none; stroke: #888; stroke-width: 1; opacity: 1;"></line><line transform="translate(207,0)" x2="0" y2="5" style="fill: none; stroke: #888; stroke-width: 1; opacity: 1;"></line><line transform="translate(212,0)" x2="0" y2="5" style="fill: none; stroke: #888; stroke-width: 1; opacity: 1;"></line><line transform="translate(217,0)" x2="0" y2="5" style="fill: none; stroke: #888; stroke-width: 1; opacity: 1;"></line><line transform="translate(222,0)" x2="0" y2="5" style="fill: none; stroke: #888; stroke-width: 1; opacity: 1;"></line><line transform="translate(227,0)" x2="0" y2="5" style="fill: none; stroke: #888; stroke-width: 1; opacity: 1;"></line><line transform="translate(232,0)" x2="0" y2="5" style="fill: none; stroke: #888; stroke-width: 1; opacity: 1;"></line><line transform="translate(237,0)" x2="0" y2="5" style="fill: none; stroke: #888; stroke-width: 1; opacity: 1;"></line><line transform="translate(242,0)" x2="0" y2="5" style="fill: none; stroke: #888; stroke-width: 1; opacity: 1;"></line><line transform="translate(247,0)" x2="0" y2="5" style="fill: none; stroke: #888; stroke-width: 1; opacity: 1;"></line><line transform="translate(252,0)" x2="0" y2="5" style="fill: none; stroke: #888; stroke-width: 1; opacity: 1;"></line><line transform="translate(257,0)" x2="0" y2="5" style="fill: none; stroke: #888; stroke-width: 1; opacity: 1;"></line><line transform="translate(262,0)" x2="0" y2="5" style="fill: none; stroke: #888; stroke-width: 1; opacity: 1;"></line><line transform="translate(267,0)" x2="0" y2="5" style="fill: none; stroke: #888; stroke-width: 1; opacity: 1;"></line><line transform="translate(272,0)" x2="0" y2="5" style="fill: none; stroke: #888; stroke-width: 1; opacity: 1;"></line><line transform="translate(277,0)" x2="0" y2="5" style="fill: none; stroke: #888; stroke-width: 1; opacity: 1;"></line><line transform="translate(282,0)" x2="0" y2="5" style="fill: none; stroke: #888; stroke-width: 1; opacity: 1;"></line><line transform="translate(287,0)" x2="0" y2="5" style="fill: none; stroke: #888; stroke-width: 1; opacity: 1;"></line><line transform="translate(292,0)" x2="0" y2="5" style="fill: none; stroke: #888; stroke-width: 1; opacity: 1;"></line><line transform="translate(297,0)" x2="0" y2="5" style="fill: none; stroke: #888; stroke-width: 1; opacity: 1;"></line><line transform="translate(302,0)" x2="0" y2="5" style="fill: none; stroke: #888; stroke-width: 1; opacity: 1;"></line><line transform="translate(307,0)" x2="0" y2="5" style="fill: none; stroke: #888; stroke-width: 1; opacity: 1;"></line><line transform="translate(312,0)" x2="0" y2="5" style="fill: none; stroke: #888; stroke-width: 1; opacity: 1;"></line><line transform="translate(317,0)" x2="0" y2="5" style="fill: none; stroke: #888; stroke-width: 1; opacity: 1;"></line><line transform="translate(322,0)" x2="0" y2="5" style="fill: none; stroke: #888; stroke-width: 1; opacity: 1;"></line><line transform="translate(327,0)" x2="0" y2="5" style="fill: none; stroke: #888; stroke-width: 1; opacity: 1;"></line><line transform="translate(332,0)" x2="0" y2="5" style="fill: none; stroke: #888; stroke-width: 1; opacity: 1;"></line><line transform="translate(337,0)" x2="0" y2="5" style="fill: none; stroke: #888; stroke-width: 1; opacity: 1;"></line><line transform="translate(342,0)" x2="0" y2="5" style="fill: none; stroke: #888; stroke-width: 1; opacity: 1;"></line><line transform="translate(347,0)" x2="0" y2="5" style="fill: none; stroke: #888; stroke-width: 1; opacity: 1;"></line><line transform="translate(352,0)" x2="0" y2="5" style="fill: none; stroke: #888; stroke-width: 1; opacity: 1;"></line><line transform="translate(357,0)" x2="0" y2="5" style="fill: none; stroke: #888; stroke-width: 1; opacity: 1;"></line><line transform="translate(362,0)" x2="0" y2="5" style="fill: none; stroke: #888; stroke-width: 1; opacity: 1;"></line><line transform="translate(367,0)" x2="0" y2="5" style="fill: none; stroke: #888; stroke-width: 1; opacity: 1;"></line><line transform="translate(372,0)" x2="0" y2="5" style="fill: none; stroke: #888; stroke-width: 1; opacity: 1;"></line><line transform="translate(377,0)" x2="0" y2="5" style="fill: none; stroke: #888; stroke-width: 1; opacity: 1;"></line><line transform="translate(382,0)" x2="0" y2="5" style="fill: none; stroke: #888; stroke-width: 1; opacity: 1;"></line><line transform="translate(387,0)" x2="0" y2="5" style="fill: none; stroke: #888; stroke-width: 1; opacity: 1;"></line><line transform="translate(392,0)" x2="0" y2="5" style="fill: none; stroke: #888; stroke-width: 1; opacity: 1;"></line><line transform="translate(397,0)" x2="0" y2="5" style="fill: none; stroke: #888; stroke-width: 1; opacity: 1;"></line><line transform="translate(402,0)" x2="0" y2="5" style="fill: none; stroke: #888; stroke-width: 1; opacity: 1;"></line><line transform="translate(407,0)" x2="0" y2="5" style="fill: none; stroke: #888; stroke-width: 1; opacity: 1;"></line><line transform="translate(412,0)" x2="0" y2="5" style="fill: none; stroke: #888; stroke-width: 1; opacity: 1;"></line><line transform="translate(417,0)" x2="0" y2="5" style="fill: none; stroke: #888; stroke-width: 1; opacity: 1;"></line><line transform="translate(422,0)" x2="0" y2="5" style="fill: none; stroke: #888; stroke-width: 1; opacity: 1;"></line><line transform="translate(427,0)" x2="0" y2="5" style="fill: none; stroke: #888; stroke-width: 1; opacity: 1;"></line><line transform="translate(433,0)" x2="0" y2="5" style="fill: none; stroke: #888; stroke-width: 1; opacity: 1;"></line><line transform="translate(438,0)" x2="0" y2="5" style="fill: none; stroke: #888; stroke-width: 1; opacity: 1;"></line><line transform="translate(443,0)" x2="0" y2="5" style="fill: none; stroke: #888; stroke-width: 1; opacity: 1;"></line><line transform="translate(448,0)" x2="0" y2="5" style="fill: none; stroke: #888; stroke-width: 1; opacity: 1;"></line><line transform="translate(453,0)" x2="0" y2="5" style="fill: none; stroke: #888; stroke-width: 1; opacity: 1;"></line><line transform="translate(458,0)" x2="0" y2="5" style="fill: none; stroke: #888; stroke-width: 1; opacity: 1;"></line><line transform="translate(463,0)" x2="0" y2="5" style="fill: none; stroke: #888; stroke-width: 1; opacity: 1;"></line><line transform="translate(468,0)" x2="0" y2="5" style="fill: none; stroke: #888; stroke-width: 1; opacity: 1;"></line><line transform="translate(473,0)" x2="0" y2="5" style="fill: none; stroke: #888; stroke-width: 1; opacity: 1;"></line><line transform="translate(478,0)" x2="0" y2="5" style="fill: none; stroke: #888; stroke-width: 1; opacity: 1;"></line><line transform="translate(483,0)" x2="0" y2="5" style="fill: none; stroke: #888; stroke-width: 1; opacity: 1;"></line><line transform="translate(488,0)" x2="0" y2="5" style="fill: none; stroke: #888; stroke-width: 1; opacity: 1;"></line><line transform="translate(493,0)" x2="0" y2="5" style="fill: none; stroke: #888; stroke-width: 1; opacity: 1;"></line><line transform="translate(498,0)" x2="0" y2="5" style="fill: none; stroke: #888; stroke-width: 1; opacity: 1;"></line><line transform="translate(503,0)" x2="0" y2="5" style="fill: none; stroke: #888; stroke-width: 1; opacity: 1;"></line><line transform="translate(508,0)" x2="0" y2="5" style="fill: none; stroke: #888; stroke-width: 1; opacity: 1;"></line><line transform="translate(513,0)" x2="0" y2="5" style="fill: none; stroke: #888; stroke-width: 1; opacity: 1;"></line><line transform="translate(518,0)" x2="0" y2="5" style="fill: none; stroke: #888; stroke-width: 1; opacity: 1;"></line><line transform="translate(523,0)" x2="0" y2="5" style="fill: none; stroke: #888; stroke-width: 1; opacity: 1;"></line><line transform="translate(528,0)" x2="0" y2="5" style="fill: none; stroke: #888; stroke-width: 1; opacity: 1;"></line><line transform="translate(533,0)" x2="0" y2="5" style="fill: none; stroke: #888; stroke-width: 1; opacity: 1;"></line><line transform="translate(538,0)" x2="0" y2="5" style="fill: none; stroke: #888; stroke-width: 1; opacity: 1;"></line><line transform="translate(543,0)" x2="0" y2="5" style="fill: none; stroke: #888; stroke-width: 1; opacity: 1;"></line><line transform="translate(548,0)" x2="0" y2="5" style="fill: none; stroke: #888; stroke-width: 1; opacity: 1;"></line><line transform="translate(553,0)" x2="0" y2="5" style="fill: none; stroke: #888; stroke-width: 1; opacity: 1;"></line><line transform="translate(558,0)" x2="0" y2="5" style="fill: none; stroke: #888; stroke-width: 1; opacity: 1;"></line><line transform="translate(563,0)" x2="0" y2="5" style="fill: none; stroke: #888; stroke-width: 1; opacity: 1;"></line><line transform="translate(568,0)" x2="0" y2="5" style="fill: none; stroke: #888; stroke-width: 1; opacity: 1;"></line><line transform="translate(573,0)" x2="0" y2="5" style="fill: none; stroke: #888; stroke-width: 1; opacity: 1;"></line><line transform="translate(578,0)" x2="0" y2="5" style="fill: none; stroke: #888; stroke-width: 1; opacity: 1;"></line><line transform="translate(583,0)" x2="0" y2="5" style="fill: none; stroke: #888; stroke-width: 1; opacity: 1;"></line><line transform="translate(588,0)" x2="0" y2="5" style="fill: none; stroke: #888; stroke-width: 1; opacity: 1;"></line><line transform="translate(593,0)" x2="0" y2="5" style="fill: none; stroke: #888; stroke-width: 1; opacity: 1;"></line><line transform="translate(598,0)" x2="0" y2="5" style="fill: none; stroke: #888; stroke-width: 1; opacity: 1;"></line><line transform="translate(603,0)" x2="0" y2="5" style="fill: none; stroke: #888; stroke-width: 1; opacity: 1;"></line><line transform="translate(608,0)" x2="0" y2="5" style="fill: none; stroke: #888; stroke-width: 1; opacity: 1;"></line><line transform="translate(613,0)" x2="0" y2="5" style="fill: none; stroke: #888; stroke-width: 1; opacity: 1;"></line><line transform="translate(618,0)" x2="0" y2="5" style="fill: none; stroke: #888; stroke-width: 1; opacity: 1;"></line><line transform="translate(623,0)" x2="0" y2="5" style="fill: none; stroke: #888; stroke-width: 1; opacity: 1;"></line><line transform="translate(628,0)" x2="0" y2="5" style="fill: none; stroke: #888; stroke-width: 1; opacity: 1;"></line><line transform="translate(633,0)" x2="0" y2="5" style="fill: none; stroke: #888; stroke-width: 1; opacity: 1;"></line><line transform="translate(638,0)" x2="0" y2="5" style="fill: none; stroke: #888; stroke-width: 1; opacity: 1;"></line><line transform="translate(643,0)" x2="0" y2="5" style="fill: none; stroke: #888; stroke-width: 1; opacity: 1;"></line><line transform="translate(648,0)" x2="0" y2="5" style="fill: none; stroke: #888; stroke-width: 1; opacity: 1;"></line><line transform="translate(653,0)" x2="0" y2="5" style="fill: none; stroke: #888; stroke-width: 1; opacity: 1;"></line><line transform="translate(658,0)" x2="0" y2="5" style="fill: none; stroke: #888; stroke-width: 1; opacity: 1;"></line><line transform="translate(663,0)" x2="0" y2="5" style="fill: none; stroke: #888; stroke-width: 1; opacity: 1;"></line><line transform="translate(668,0)" x2="0" y2="5" style="fill: none; stroke: #888; stroke-width: 1; opacity: 1;"></line><line transform="translate(673,0)" x2="0" y2="5" style="fill: none; stroke: #888; stroke-width: 1; opacity: 1;"></line><line transform="translate(678,0)" x2="0" y2="5" style="fill: none; stroke: #888; stroke-width: 1; opacity: 1;"></line><line transform="translate(683,0)" x2="0" y2="5" style="fill: none; stroke: #888; stroke-width: 1; opacity: 1;"></line><line transform="translate(688,0)" x2="0" y2="5" style="fill: none; stroke: #888; stroke-width: 1; opacity: 1;"></line><line transform="translate(693,0)" x2="0" y2="5" style="fill: none; stroke: #888; stroke-width: 1; opacity: 1;"></line><line transform="translate(698,0)" x2="0" y2="5" style="fill: none; stroke: #888; stroke-width: 1; opacity: 1;"></line><line transform="translate(703,0)" x2="0" y2="5" style="fill: none; stroke: #888; stroke-width: 1; opacity: 1;"></line><line transform="translate(708,0)" x2="0" y2="5" style="fill: none; stroke: #888; stroke-width: 1; opacity: 1;"></line><line transform="translate(713,0)" x2="0" y2="5" style="fill: none; stroke: #888; stroke-width: 1; opacity: 1;"></line><line transform="translate(718,0)" x2="0" y2="5" style="fill: none; stroke: #888; stroke-width: 1; opacity: 1;"></line><line transform="translate(723,0)" x2="0" y2="5" style="fill: none; stroke: #888; stroke-width: 1; opacity: 1;"></line><line transform="translate(728,0)" x2="0" y2="5" style="fill: none; stroke: #888; stroke-width: 1; opacity: 1;"></line><line transform="translate(733,0)" x2="0" y2="5" style="fill: none; stroke: #888; stroke-width: 1; opacity: 1;"></line><line transform="translate(738,0)" x2="0" y2="5" style="fill: none; stroke: #888; stroke-width: 1; opacity: 1;"></line><line transform="translate(743,0)" x2="0" y2="5" style="fill: none; stroke: #888; stroke-width: 1; opacity: 1;"></line><line transform="translate(748,0)" x2="0" y2="5" style="fill: none; stroke: #888; stroke-width: 1; opacity: 1;"></line><line transform="translate(753,0)" x2="0" y2="5" style="fill: none; stroke: #888; stroke-width: 1; opacity: 1;"></line><line transform="translate(758,0)" x2="0" y2="5" style="fill: none; stroke: #888; stroke-width: 1; opacity: 1;"></line><line transform="translate(763,0)" x2="0" y2="5" style="fill: none; stroke: #888; stroke-width: 1; opacity: 1;"></line><line transform="translate(768,0)" x2="0" y2="5" style="fill: none; stroke: #888; stroke-width: 1; opacity: 1;"></line><line transform="translate(773,0)" x2="0" y2="5" style="fill: none; stroke: #888; stroke-width: 1; opacity: 1;"></line><line transform="translate(779,0)" x2="0" y2="5" style="fill: none; stroke: #888; stroke-width: 1; opacity: 1;"></line><line transform="translate(784,0)" x2="0" y2="5" style="fill: none; stroke: #888; stroke-width: 1; opacity: 1;"></line><line transform="translate(789,0)" x2="0" y2="5" style="fill: none; stroke: #888; stroke-width: 1; opacity: 1;"></line><line transform="translate(794,0)" x2="0" y2="5" style="fill: none; stroke: #888; stroke-width: 1; opacity: 1;"></line><line transform="translate(799,0)" x2="0" y2="5" style="fill: none; stroke: #888; stroke-width: 1; opacity: 1;"></line><line transform="translate(804,0)" x2="0" y2="5" style="fill: none; stroke: #888; stroke-width: 1; opacity: 1;"></line><line transform="translate(809,0)" x2="0" y2="5" style="fill: none; stroke: #888; stroke-width: 1; opacity: 1;"></line><line transform="translate(814,0)" x2="0" y2="5" style="fill: none; stroke: #888; stroke-width: 1; opacity: 1;"></line><line transform="translate(819,0)" x2="0" y2="5" style="fill: none; stroke: #888; stroke-width: 1; opacity: 1;"></line><line transform="translate(824,0)" x2="0" y2="5" style="fill: none; stroke: #888; stroke-width: 1; opacity: 1;"></line><line transform="translate(829,0)" x2="0" y2="5" style="fill: none; stroke: #888; stroke-width: 1; opacity: 1;"></line><line transform="translate(834,0)" x2="0" y2="5" style="fill: none; stroke: #888; stroke-width: 1; opacity: 1;"></line><line transform="translate(839,0)" x2="0" y2="5" style="fill: none; stroke: #888; stroke-width: 1; opacity: 1;"></line><line transform="translate(844,0)" x2="0" y2="5" style="fill: none; stroke: #888; stroke-width: 1; opacity: 1;"></line><line transform="translate(849,0)" x2="0" y2="5" style="fill: none; stroke: #888; stroke-width: 1; opacity: 1;"></line><line transform="translate(854,0)" x2="0" y2="5" style="fill: none; stroke: #888; stroke-width: 1; opacity: 1;"></line><line transform="translate(859,0)" x2="0" y2="5" style="fill: none; stroke: #888; stroke-width: 1; opacity: 1;"></line></g><g class="mark-rule role-axis-domain" style="pointer-events: none;"><line transform="translate(0,0)" x2="862" y2="0" style="fill: none; stroke: #888; stroke-width: 1; opacity: 1;"></line></g><g class="mark-text role-axis-title" style="pointer-events: none;"><text text-anchor="middle" transform="translate(431,31)" style="font-family: sans-serif; font-size: 26px; font-weight: bold; fill: #000; opacity: 1;">Hieroglyphen</text></g></g></g></g><g class="mark-group role-axis"><g transform="translate(0.5,0.5)"><path class="background" d="M0,0h0v0h0Z" style="pointer-events: none; fill: none;"></path><g><g class="mark-rule role-axis-tick" style="pointer-events: none;"><line transform="translate(0,200)" x2="-5" y2="0" style="fill: none; stroke: #888; stroke-width: 1; opacity: 1;"></line><line transform="translate(0,156)" x2="-5" y2="0" style="fill: none; stroke: #888; stroke-width: 1; opacity: 1;"></line><line transform="translate(0,111)" x2="-5" y2="0" style="fill: none; stroke: #888; stroke-width: 1; opacity: 1;"></line><line transform="translate(0,67)" x2="-5" y2="0" style="fill: none; stroke: #888; stroke-width: 1; opacity: 1;"></line><line transform="translate(0,22)" x2="-5" y2="0" style="fill: none; stroke: #888; stroke-width: 1; opacity: 1;"></line></g><g class="mark-text role-axis-label" style="pointer-events: none;"><text text-anchor="end" transform="translate(-7,207)" style="font-family: sans-serif; font-size: 23.400000000000002px; fill: #000; opacity: 1;">0</text><text text-anchor="end" transform="translate(-7,162.55555555555554)" style="font-family: sans-serif; font-size: 23.400000000000002px; fill: #000; opacity: 1;">100</text><text text-anchor="end" transform="translate(-7,118.11111111111111)" style="font-family: sans-serif; font-size: 23.400000000000002px; fill: #000; opacity: 1;">200</text><text text-anchor="end" transform="translate(-7,73.66666666666669)" style="font-family: sans-serif; font-size: 23.400000000000002px; fill: #000; opacity: 1;">300</text><text text-anchor="end" transform="translate(-7,29.22222222222223)" style="font-family: sans-serif; font-size: 23.400000000000002px; fill: #000; opacity: 1;">400</text></g><g class="mark-rule role-axis-domain" style="pointer-events: none;"><line transform="translate(0,200)" x2="0" y2="-200" style="fill: none; stroke: #888; stroke-width: 1; opacity: 1;"></line></g><g class="mark-text role-axis-title" style="pointer-events: none;"><text text-anchor="middle" transform="translate(-56,100) rotate(-90) translate(0,-5)" style="font-family: sans-serif; font-size: 26px; font-weight: bold; fill: #000; opacity: 1;">Anzahl</text></g></g></g></g><g class="mark-rect role-mark marks"><path d="M857.4869109947645,199.55555555555554h4.513089005235602v0.4444444444444571h-4.513089005235602Z" style="fill: #4c78a8;"></path><path d="M601.7452006980803,198.66666666666666h4.513089005235602v1.3333333333333428h-4.513089005235602Z" style="fill: #4c78a8;"></path><path d="M436.2652705061082,197.77777777777777h4.513089005235602v2.2222222222222285h-4.513089005235602Z" style="fill: #4c78a8;"></path><path d="M596.7306573589296,198.66666666666666h4.513089005235602v1.3333333333333428h-4.513089005235602Z" style="fill: #4c78a8;"></path><path d="M852.4723676556138,199.55555555555554h4.513089005235602v0.4444444444444571h-4.513089005235602Z" style="fill: #4c78a8;"></path><path d="M431.2507271669575,197.77777777777777h4.513089005235602v2.2222222222222285h-4.513089005235602Z" style="fill: #4c78a8;"></path><path d="M591.716114019779,198.66666666666666h4.513089005235602v1.3333333333333428h-4.513089005235602Z" style="fill: #4c78a8;"></path><path d="M586.7015706806283,198.66666666666666h4.513089005235602v1.3333333333333428h-4.513089005235602Z" style="fill: #4c78a8;"></path><path d="M581.6870273414776,198.66666666666666h4.513089005235602v1.3333333333333428h-4.513089005235602Z" style="fill: #4c78a8;"></path><path d="M155.45084351367075,189.33333333333334h4.513089005235602v10.666666666666657h-4.513089005235602Z" style="fill: #4c78a8;"></path><path d="M30.087260034904013,118.66666666666667h4.513089005235602v81.33333333333333h-4.513089005235602Z" style="fill: #4c78a8;"></path><path d="M210.6108202443281,192.44444444444446h4.513089005235602v7.555555555555543h-4.513089005235602Z" style="fill: #4c78a8;"></path><path d="M847.4578243164631,199.55555555555554h4.513089005235602v0.4444444444444571h-4.513089005235602Z" style="fill: #4c78a8;"></path><path d="M80.2326934264107,174.66666666666666h4.513089005235602v25.333333333333343h-4.513089005235602Z" style="fill: #4c78a8;"></path><path d="M75.21815008726004,173.77777777777777h4.513089005235602v26.22222222222223h-4.513089005235602Z" style="fill: #4c78a8;"></path><path d="M671.9488074461897,199.11111111111111h4.513089005235602v0.8888888888888857h-4.513089005235602Z" style="fill: #4c78a8;"></path><path d="M115.33449680046539,183.55555555555554h4.513089005235602v16.444444444444457h-4.513089005235602Z" style="fill: #4c78a8;"></path><path d="M85.24723676556137,177.77777777777777h4.513089005235602v22.22222222222223h-4.513089005235602Z" style="fill: #4c78a8;"></path><path d="M426.2361838278069,197.77777777777777h4.513089005235602v2.2222222222222285h-4.513089005235602Z" style="fill: #4c78a8;"></path><path d="M842.4432809773124,199.55555555555554h4.513089005235602v0.4444444444444571h-4.513089005235602Z" style="fill: #4c78a8;"></path><path d="M260.7562536358348,194.66666666666666h4.513089005235602v5.333333333333343h-4.513089005235602Z" style="fill: #4c78a8;"></path><path d="M576.672484002327,198.66666666666666h4.513089005235602v1.3333333333333428h-4.513089005235602Z" style="fill: #4c78a8;"></path><path d="M125.36358347876673,184h4.513089005235602v16h-4.513089005235602Z" style="fill: #4c78a8;"></path><path d="M391.1343804537522,197.33333333333334h4.513089005235602v2.666666666666657h-4.513089005235602Z" style="fill: #4c78a8;"></path><path d="M837.4287376381617,199.55555555555554h4.513089005235602v0.4444444444444571h-4.513089005235602Z" style="fill: #4c78a8;"></path><path d="M376.0907504363002,196.88888888888889h4.513089005235602v3.1111111111111143h-4.513089005235602Z" style="fill: #4c78a8;"></path><path d="M832.4141942990111,199.55555555555554h4.513089005235602v0.4444444444444571h-4.513089005235602Z" style="fill: #4c78a8;"></path><path d="M295.8580570098895,195.55555555555554h4.513089005235602v4.444444444444457h-4.513089005235602Z" style="fill: #4c78a8;"></path><path d="M50.14543339150669,145.77777777777777h4.513089005235602v54.22222222222223h-4.513089005235602Z" style="fill: #4c78a8;"></path><path d="M290.8435136707388,195.55555555555554h4.513089005235602v4.444444444444457h-4.513089005235602Z" style="fill: #4c78a8;"></path><path d="M827.3996509598604,199.55555555555554h4.513089005235602v0.4444444444444571h-4.513089005235602Z" style="fill: #4c78a8;"></path><path d="M340.9889470622455,196.44444444444446h4.513089005235602v3.555555555555543h-4.513089005235602Z" style="fill: #4c78a8;"></path><path d="M371.0762070971495,196.88888888888889h4.513089005235602v3.1111111111111143h-4.513089005235602Z" style="fill: #4c78a8;"></path><path d="M386.1198371146015,197.33333333333334h4.513089005235602v2.666666666666657h-4.513089005235602Z" style="fill: #4c78a8;"></path><path d="M822.3851076207097,199.55555555555554h4.513089005235602v0.4444444444444571h-4.513089005235602Z" style="fill: #4c78a8;"></path><path d="M817.370564281559,199.55555555555554h4.513089005235602v0.4444444444444571h-4.513089005235602Z" style="fill: #4c78a8;"></path><path d="M812.3560209424083,199.55555555555554h4.513089005235602v0.4444444444444571h-4.513089005235602Z" style="fill: #4c78a8;"></path><path d="M471.3670738801629,198.22222222222223h4.513089005235602v1.7777777777777715h-4.513089005235602Z" style="fill: #4c78a8;"></path><path d="M807.3414776032578,199.55555555555554h4.513089005235602v0.4444444444444571h-4.513089005235602Z" style="fill: #4c78a8;"></path><path d="M802.3269342641071,199.55555555555554h4.513089005235602v0.4444444444444571h-4.513089005235602Z" style="fill: #4c78a8;"></path><path d="M335.97440372309484,196.44444444444446h4.513089005235602v3.555555555555543h-4.513089005235602Z" style="fill: #4c78a8;"></path><path d="M797.3123909249564,199.55555555555554h4.513089005235602v0.4444444444444571h-4.513089005235602Z" style="fill: #4c78a8;"></path><path d="M285.82897033158815,195.55555555555554h4.513089005235602v4.444444444444457h-4.513089005235602Z" style="fill: #4c78a8;"></path><path d="M571.6579406631763,198.66666666666666h4.513089005235602v1.3333333333333428h-4.513089005235602Z" style="fill: #4c78a8;"></path><path d="M466.35253054101224,198.22222222222223h4.513089005235602v1.7777777777777715h-4.513089005235602Z" style="fill: #4c78a8;"></path><path d="M666.934264107039,199.11111111111111h4.513089005235602v0.8888888888888857h-4.513089005235602Z" style="fill: #4c78a8;"></path><path d="M566.6433973240256,198.66666666666666h4.513089005235602v1.3333333333333428h-4.513089005235602Z" style="fill: #4c78a8;"></path><path d="M130.3781268179174,184.44444444444446h4.513089005235602v15.555555555555543h-4.513089005235602Z" style="fill: #4c78a8;"></path><path d="M792.2978475858057,199.55555555555554h4.513089005235602v0.4444444444444571h-4.513089005235602Z" style="fill: #4c78a8;"></path><path d="M661.9197207678883,199.11111111111111h4.513089005235602v0.8888888888888857h-4.513089005235602Z" style="fill: #4c78a8;"></path><path d="M25.072716695753346,113.33333333333333h4.513089005235602v86.66666666666667h-4.513089005235602Z" style="fill: #4c78a8;"></path><path d="M656.9051774287376,199.11111111111111h4.513089005235602v0.8888888888888857h-4.513089005235602Z" style="fill: #4c78a8;"></path><path d="M145.4217568353694,188h4.513089005235602v12h-4.513089005235602Z" style="fill: #4c78a8;"></path><path d="M651.890634089587,199.11111111111111h4.513089005235602v0.8888888888888857h-4.513089005235602Z" style="fill: #4c78a8;"></path><path d="M561.6288539848749,198.66666666666666h4.513089005235602v1.3333333333333428h-4.513089005235602Z" style="fill: #4c78a8;"></path><path d="M110.31995346131473,183.11111111111111h4.513089005235602v16.888888888888886h-4.513089005235602Z" style="fill: #4c78a8;"></path><path d="M305.8871436881908,196h4.513089005235602v4h-4.513089005235602Z" style="fill: #4c78a8;"></path><path d="M556.6143106457242,198.66666666666666h4.513089005235602v1.3333333333333428h-4.513089005235602Z" style="fill: #4c78a8;"></path><path d="M165.47993019197207,190.66666666666666h4.513089005235602v9.333333333333343h-4.513089005235602Z" style="fill: #4c78a8;"></path><path d="M330.95986038394415,196.44444444444446h4.513089005235602v3.555555555555543h-4.513089005235602Z" style="fill: #4c78a8;"></path><path d="M325.9453170447935,196.44444444444446h4.513089005235602v3.555555555555543h-4.513089005235602Z" style="fill: #4c78a8;"></path><path d="M20.058173356602676,112.44444444444444h4.513089005235602v87.55555555555556h-4.513089005235602Z" style="fill: #4c78a8;"></path><path d="M135.39267015706807,186.22222222222223h4.513089005235602v13.777777777777771h-4.513089005235602Z" style="fill: #4c78a8;"></path><path d="M787.283304246655,199.55555555555554h4.513089005235602v0.4444444444444571h-4.513089005235602Z" style="fill: #4c78a8;"></path><path d="M270.78534031413614,195.11111111111111h4.513089005235602v4.888888888888886h-4.513089005235602Z" style="fill: #4c78a8;"></path><path d="M366.0616637579988,196.88888888888889h4.513089005235602v3.1111111111111143h-4.513089005235602Z" style="fill: #4c78a8;"></path><path d="M95.27632344386271,181.77777777777777h4.513089005235602v18.22222222222223h-4.513089005235602Z" style="fill: #4c78a8;"></path><path d="M782.2687609075044,199.55555555555554h4.513089005235602v0.4444444444444571h-4.513089005235602Z" style="fill: #4c78a8;"></path><path d="M40.11634671320535,135.11111111111111h4.513089005235602v64.88888888888889h-4.513089005235602Z" style="fill: #4c78a8;"></path><path d="M551.5997673065737,198.66666666666666h4.513089005235602v1.3333333333333428h-4.513089005235602Z" style="fill: #4c78a8;"></path><path d="M546.585223967423,198.66666666666666h4.513089005235602v1.3333333333333428h-4.513089005235602Z" style="fill: #4c78a8;"></path><path d="M541.5706806282723,198.66666666666666h4.513089005235602v1.3333333333333428h-4.513089005235602Z" style="fill: #4c78a8;"></path><path d="M646.8760907504363,199.11111111111111h4.513089005235602v0.8888888888888857h-4.513089005235602Z" style="fill: #4c78a8;"></path><path d="M5.014543339150669,38.22222222222223h4.513089005235602v161.77777777777777h-4.513089005235602Z" style="fill: #4c78a8;"></path><path d="M245.7126236183828,194.22222222222223h4.513089005235602v5.7777777777777715h-4.513089005235602Z" style="fill: #4c78a8;"></path><path d="M536.5561372891216,198.66666666666666h4.513089005235602v1.3333333333333428h-4.513089005235602Z" style="fill: #4c78a8;"></path><path d="M531.5415939499709,198.66666666666666h4.513089005235602v1.3333333333333428h-4.513089005235602Z" style="fill: #4c78a8;"></path><path d="M105.30541012216405,183.11111111111111h4.513089005235602v16.888888888888886h-4.513089005235602Z" style="fill: #4c78a8;"></path><path d="M777.2542175683537,199.55555555555554h4.513089005235602v0.4444444444444571h-4.513089005235602Z" style="fill: #4c78a8;"></path><path d="M526.5270506108202,198.66666666666666h4.513089005235602v1.3333333333333428h-4.513089005235602Z" style="fill: #4c78a8;"></path><path d="M461.33798720186155,198.22222222222223h4.513089005235602v1.7777777777777715h-4.513089005235602Z" style="fill: #4c78a8;"></path><path d="M772.239674229203,199.55555555555554h4.513089005235602v0.4444444444444571h-4.513089005235602Z" style="fill: #4c78a8;"></path><path d="M521.5125072716696,198.66666666666666h4.513089005235602v1.3333333333333428h-4.513089005235602Z" style="fill: #4c78a8;"></path><path d="M516.4979639325189,198.66666666666666h4.513089005235602v1.3333333333333428h-4.513089005235602Z" style="fill: #4c78a8;"></path><path d="M421.2216404886562,197.77777777777777h4.513089005235602v2.2222222222222285h-4.513089005235602Z" style="fill: #4c78a8;"></path><path d="M361.0471204188482,196.88888888888889h4.513089005235602v3.1111111111111143h-4.513089005235602Z" style="fill: #4c78a8;"></path><path d="M641.8615474112856,199.11111111111111h4.513089005235602v0.8888888888888857h-4.513089005235602Z" style="fill: #4c78a8;"></path><path d="M190.55264688772542,192h4.513089005235602v8h-4.513089005235602Z" style="fill: #4c78a8;"></path><path d="M225.6544502617801,193.77777777777777h4.513089005235602v6.2222222222222285h-4.513089005235602Z" style="fill: #4c78a8;"></path><path d="M767.2251308900524,199.55555555555554h4.513089005235602v0.4444444444444571h-4.513089005235602Z" style="fill: #4c78a8;"></path><path d="M320.9307737056428,196.44444444444446h4.513089005235602v3.555555555555543h-4.513089005235602Z" style="fill: #4c78a8;"></path><path d="M180.5235602094241,191.55555555555554h4.513089005235602v8.444444444444457h-4.513089005235602Z" style="fill: #4c78a8;"></path><path d="M762.2105875509017,199.55555555555554h4.513089005235602v0.4444444444444571h-4.513089005235602Z" style="fill: #4c78a8;"></path><path d="M757.1960442117511,199.55555555555554h4.513089005235602v0.4444444444444571h-4.513089005235602Z" style="fill: #4c78a8;"></path><path d="M752.1815008726004,199.55555555555554h4.513089005235602v0.4444444444444571h-4.513089005235602Z" style="fill: #4c78a8;"></path><path d="M636.847004072135,199.11111111111111h4.513089005235602v0.8888888888888857h-4.513089005235602Z" style="fill: #4c78a8;"></path><path d="M747.1669575334497,199.55555555555554h4.513089005235602v0.4444444444444571h-4.513089005235602Z" style="fill: #4c78a8;"></path><path d="M185.53810354857475,192h4.513089005235602v8h-4.513089005235602Z" style="fill: #4c78a8;"></path><path d="M255.74171029668412,194.66666666666666h4.513089005235602v5.333333333333343h-4.513089005235602Z" style="fill: #4c78a8;"></path><path d="M205.59627690517743,192.44444444444446h4.513089005235602v7.555555555555543h-4.513089005235602Z" style="fill: #4c78a8;"></path><path d="M0,0.8888888888888857h4.513089005235602v199.11111111111111h-4.513089005235602Z" style="fill: #4c78a8;"></path><path d="M631.8324607329843,199.11111111111111h4.513089005235602v0.8888888888888857h-4.513089005235602Z" style="fill: #4c78a8;"></path><path d="M140.40721349621873,186.66666666666666h4.513089005235602v13.333333333333343h-4.513089005235602Z" style="fill: #4c78a8;"></path><path d="M511.48342059336824,198.66666666666666h4.513089005235602v1.3333333333333428h-4.513089005235602Z" style="fill: #4c78a8;"></path><path d="M160.4653868528214,190.66666666666666h4.513089005235602v9.333333333333343h-4.513089005235602Z" style="fill: #4c78a8;"></path><path d="M170.49447353112274,191.11111111111111h4.513089005235602v8.888888888888886h-4.513089005235602Z" style="fill: #4c78a8;"></path><path d="M742.152414194299,199.55555555555554h4.513089005235602v0.4444444444444571h-4.513089005235602Z" style="fill: #4c78a8;"></path><path d="M280.81442699243746,195.55555555555554h4.513089005235602v4.444444444444457h-4.513089005235602Z" style="fill: #4c78a8;"></path><path d="M737.1378708551483,199.55555555555554h4.513089005235602v0.4444444444444571h-4.513089005235602Z" style="fill: #4c78a8;"></path><path d="M356.0325770796975,196.88888888888889h4.513089005235602v3.1111111111111143h-4.513089005235602Z" style="fill: #4c78a8;"></path><path d="M175.50901687027343,191.55555555555554h4.513089005235602v8.444444444444457h-4.513089005235602Z" style="fill: #4c78a8;"></path><path d="M220.63990692262945,193.77777777777777h4.513089005235602v6.2222222222222285h-4.513089005235602Z" style="fill: #4c78a8;"></path><path d="M240.6980802792321,194.22222222222223h4.513089005235602v5.7777777777777715h-4.513089005235602Z" style="fill: #4c78a8;"></path><path d="M55.15997673065736,152.88888888888889h4.513089005235602v47.111111111111114h-4.513089005235602Z" style="fill: #4c78a8;"></path><path d="M732.1233275159976,199.55555555555554h4.513089005235602v0.4444444444444571h-4.513089005235602Z" style="fill: #4c78a8;"></path><path d="M416.20709714950556,197.77777777777777h4.513089005235602v2.2222222222222285h-4.513089005235602Z" style="fill: #4c78a8;"></path><path d="M727.108784176847,199.55555555555554h4.513089005235602v0.4444444444444571h-4.513089005235602Z" style="fill: #4c78a8;"></path><path d="M506.4688772542176,198.66666666666666h4.513089005235602v1.3333333333333428h-4.513089005235602Z" style="fill: #4c78a8;"></path><path d="M215.62536358347876,192.88888888888889h4.513089005235602v7.111111111111114h-4.513089005235602Z" style="fill: #4c78a8;"></path><path d="M411.19255381035487,197.77777777777777h4.513089005235602v2.2222222222222285h-4.513089005235602Z" style="fill: #4c78a8;"></path><path d="M200.58173356602677,192.44444444444446h4.513089005235602v7.555555555555543h-4.513089005235602Z" style="fill: #4c78a8;"></path><path d="M65.1890634089587,165.77777777777777h4.513089005235602v34.22222222222223h-4.513089005235602Z" style="fill: #4c78a8;"></path><path d="M501.4543339150669,198.66666666666666h4.513089005235602v1.3333333333333428h-4.513089005235602Z" style="fill: #4c78a8;"></path><path d="M496.4397905759162,198.66666666666666h4.513089005235602v1.3333333333333428h-4.513089005235602Z" style="fill: #4c78a8;"></path><path d="M70.20360674810937,170.22222222222223h4.513089005235602v29.77777777777777h-4.513089005235602Z" style="fill: #4c78a8;"></path><path d="M626.8179173938337,199.11111111111111h4.513089005235602v0.8888888888888857h-4.513089005235602Z" style="fill: #4c78a8;"></path><path d="M621.803374054683,199.11111111111111h4.513089005235602v0.8888888888888857h-4.513089005235602Z" style="fill: #4c78a8;"></path><path d="M10.029086678301338,82.22222222222221h4.513089005235602v117.77777777777779h-4.513089005235602Z" style="fill: #4c78a8;"></path><path d="M275.7998836532868,195.55555555555554h4.513089005235602v4.444444444444457h-4.513089005235602Z" style="fill: #4c78a8;"></path><path d="M722.0942408376964,199.55555555555554h4.513089005235602v0.4444444444444571h-4.513089005235602Z" style="fill: #4c78a8;"></path><path d="M717.0796974985457,199.55555555555554h4.513089005235602v0.4444444444444571h-4.513089005235602Z" style="fill: #4c78a8;"></path><path d="M456.32344386271086,198.22222222222223h4.513089005235602v1.7777777777777715h-4.513089005235602Z" style="fill: #4c78a8;"></path><path d="M491.4252472367656,198.66666666666666h4.513089005235602v1.3333333333333428h-4.513089005235602Z" style="fill: #4c78a8;"></path><path d="M300.87260034904017,196h4.513089005235602v4h-4.513089005235602Z" style="fill: #4c78a8;"></path><path d="M616.7888307155323,199.11111111111111h4.513089005235602v0.8888888888888857h-4.513089005235602Z" style="fill: #4c78a8;"></path><path d="M486.4107038976149,198.66666666666666h4.513089005235602v1.3333333333333428h-4.513089005235602Z" style="fill: #4c78a8;"></path><path d="M150.43630017452008,188.88888888888889h4.513089005235602v11.111111111111114h-4.513089005235602Z" style="fill: #4c78a8;"></path><path d="M235.68353694008144,194.22222222222223h4.513089005235602v5.7777777777777715h-4.513089005235602Z" style="fill: #4c78a8;"></path><path d="M481.3961605584642,198.66666666666666h4.513089005235602v1.3333333333333428h-4.513089005235602Z" style="fill: #4c78a8;"></path><path d="M195.5671902268761,192.44444444444446h4.513089005235602v7.555555555555543h-4.513089005235602Z" style="fill: #4c78a8;"></path><path d="M712.065154159395,199.55555555555554h4.513089005235602v0.4444444444444571h-4.513089005235602Z" style="fill: #4c78a8;"></path><path d="M451.3089005235602,198.22222222222223h4.513089005235602v1.7777777777777715h-4.513089005235602Z" style="fill: #4c78a8;"></path><path d="M35.10180337405468,120.44444444444444h4.513089005235602v79.55555555555556h-4.513089005235602Z" style="fill: #4c78a8;"></path><path d="M60.174520069808025,164.88888888888889h4.513089005235602v35.111111111111114h-4.513089005235602Z" style="fill: #4c78a8;"></path><path d="M707.0506108202443,199.55555555555554h4.513089005235602v0.4444444444444571h-4.513089005235602Z" style="fill: #4c78a8;"></path><path d="M702.0360674810937,199.55555555555554h4.513089005235602v0.4444444444444571h-4.513089005235602Z" style="fill: #4c78a8;"></path><path d="M406.1780104712042,197.77777777777777h4.513089005235602v2.2222222222222285h-4.513089005235602Z" style="fill: #4c78a8;"></path><path d="M697.021524141943,199.55555555555554h4.513089005235602v0.4444444444444571h-4.513089005235602Z" style="fill: #4c78a8;"></path><path d="M120.34904013961605,184h4.513089005235602v16h-4.513089005235602Z" style="fill: #4c78a8;"></path><path d="M315.91623036649213,196.44444444444446h4.513089005235602v3.555555555555543h-4.513089005235602Z" style="fill: #4c78a8;"></path><path d="M45.13089005235602,140.88888888888889h4.513089005235602v59.111111111111114h-4.513089005235602Z" style="fill: #4c78a8;"></path><path d="M230.66899360093078,194.22222222222223h4.513089005235602v5.7777777777777715h-4.513089005235602Z" style="fill: #4c78a8;"></path><path d="M611.7742873763816,199.11111111111111h4.513089005235602v0.8888888888888857h-4.513089005235602Z" style="fill: #4c78a8;"></path><path d="M401.16346713205354,197.77777777777777h4.513089005235602v2.2222222222222285h-4.513089005235602Z" style="fill: #4c78a8;"></path><path d="M396.14892379290285,197.77777777777777h4.513089005235602v2.2222222222222285h-4.513089005235602Z" style="fill: #4c78a8;"></path><path d="M692.0069808027923,199.55555555555554h4.513089005235602v0.4444444444444571h-4.513089005235602Z" style="fill: #4c78a8;"></path><path d="M686.9924374636416,199.55555555555554h4.513089005235602v0.4444444444444571h-4.513089005235602Z" style="fill: #4c78a8;"></path><path d="M351.01803374054685,196.88888888888889h4.513089005235602v3.1111111111111143h-4.513089005235602Z" style="fill: #4c78a8;"></path><path d="M446.29435718440953,198.22222222222223h4.513089005235602v1.7777777777777715h-4.513089005235602Z" style="fill: #4c78a8;"></path><path d="M606.7597440372309,199.11111111111111h4.513089005235602v0.8888888888888857h-4.513089005235602Z" style="fill: #4c78a8;"></path><path d="M100.29086678301339,182.66666666666666h4.513089005235602v17.333333333333343h-4.513089005235602Z" style="fill: #4c78a8;"></path><path d="M250.72716695753346,194.66666666666666h4.513089005235602v5.333333333333343h-4.513089005235602Z" style="fill: #4c78a8;"></path><path d="M15.043630017452006,96.88888888888889h4.513089005235602v103.11111111111111h-4.513089005235602Z" style="fill: #4c78a8;"></path><path d="M681.977894124491,199.55555555555554h4.513089005235602v0.4444444444444571h-4.513089005235602Z" style="fill: #4c78a8;"></path><path d="M381.10529377545083,197.33333333333334h4.513089005235602v2.666666666666657h-4.513089005235602Z" style="fill: #4c78a8;"></path><path d="M676.9633507853404,199.55555555555554h4.513089005235602v0.4444444444444571h-4.513089005235602Z" style="fill: #4c78a8;"></path><path d="M346.00349040139616,196.88888888888889h4.513089005235602v3.1111111111111143h-4.513089005235602Z" style="fill: #4c78a8;"></path><path d="M476.38161721931357,198.66666666666666h4.513089005235602v1.3333333333333428h-4.513089005235602Z" style="fill: #4c78a8;"></path><path d="M310.9016870273415,196.44444444444446h4.513089005235602v3.555555555555543h-4.513089005235602Z" style="fill: #4c78a8;"></path><path d="M90.26178010471205,178.22222222222223h4.513089005235602v21.77777777777777h-4.513089005235602Z" style="fill: #4c78a8;"></path><path d="M265.77079697498544,195.11111111111111h4.513089005235602v4.888888888888886h-4.513089005235602Z" style="fill: #4c78a8;"></path><path d="M441.2798138452589,198.22222222222223h4.513089005235602v1.7777777777777715h-4.513089005235602Z" style="fill: #4c78a8;"></path></g><g class="mark-text role-title" style="pointer-events: none;"><text text-anchor="middle" transform="translate(431,-9)" style="font-family: sans-serif; font-size: 26px; font-weight: bold; fill: #000; opacity: 1;">Hieroglyphen-Histogram (Sortiert)</text></g></g></g></g></g></svg>