<svg class="marks" width="954" height="787.6" viewBox="0 0 954 787.6" version="1.1" xmlns="http://www.w3.org/2000/svg" xmlns:xlink="http://www.w3.org/1999/xlink"><g transform="translate(41,35)"><g class="mark-group role-frame root"><g transform="translate(0,0)"><path class="background" d="M0.5,0.5h906v687.6h-906Z" style="fill: none; stroke: #ddd;"></path><g><g class="mark-group role-axis"><g transform="translate(0.5,688.1)"><path class="background" d="M0,0h0v0h0Z" style="pointer-events: none; fill: none;"></path><g><g class="mark-rule role-axis-grid" style="pointer-events: none;"><line transform="translate(0,0)" x2="0" y2="-687.6" style="fill: none; stroke: #ddd; stroke-width: 1; opacity: 1;"></line><line transform="translate(40,0)" x2="0" y2="-687.6" style="fill: none; stroke: #ddd; stroke-width: 1; opacity: 1;"></line><line transform="translate(81,0)" x2="0" y2="-687.6" style="fill: none; stroke: #ddd; stroke-width: 1; opacity: 1;"></line><line transform="translate(121,0)" x2="0" y2="-687.6" style="fill: none; stroke: #ddd; stroke-width: 1; opacity: 1;"></line><line transform="translate(161,0)" x2="0" y2="-687.6" style="fill: none; stroke: #ddd; stroke-width: 1; opacity: 1;"></line><line transform="translate(201,0)" x2="0" y2="-687.6" style="fill: none; stroke: #ddd; stroke-width: 1; opacity: 1;"></line><line transform="translate(242,0)" x2="0" y2="-687.6" style="fill: none; stroke: #ddd; stroke-width: 1; opacity: 1;"></line><line transform="translate(282,0)" x2="0" y2="-687.6" style="fill: none; stroke: #ddd; stroke-width: 1; opacity: 1;"></line><line transform="translate(322,0)" x2="0" y2="-687.6" style="fill: none; stroke: #ddd; stroke-width: 1; opacity: 1;"></line><line transform="translate(362,0)" x2="0" y2="-687.6" style="fill: none; stroke: #ddd; stroke-width: 1; opacity: 1;"></line><line transform="translate(403,0)" x2="0" y2="-687.6" style="fill: none; stroke: #ddd; stroke-width: 1; opacity: 1;"></line><line transform="translate(443,0)" x2="0" y2="-687.6" style="fill: none; stroke: #ddd; stroke-width: 1; opacity: 1;"></line><line transform="translate(483,0)" x2="0" y2="-687.6" style="fill: none; stroke: #ddd; stroke-width: 1; opacity: 1;"></line><line transform="translate(523,0)" x2="0" y2="-687.6" style="fill: none; stroke: #ddd; stroke-width: 1; opacity: 1;"></line><line transform="translate(564,0)" x2="0" y2="-687.6" style="fill: none; stroke: #ddd; stroke-width: 1; opacity: 1;"></line><line transform="translate(604,0)" x2="0" y2="-687.6" style="fill: none; stroke: #ddd; stroke-width: 1; opacity: 1;"></line><line transform="translate(644,0)" x2="0" y2="-687.6" style="fill: none; stroke: #ddd; stroke-width: 1; opacity: 1;"></line><line transform="translate(685,0)" x2="0" y2="-687.6" style="fill: none; stroke: #ddd; stroke-width: 1; opacity: 1;"></line><line transform="translate(725,0)" x2="0" y2="-687.6" style="fill: none; stroke: #ddd; stroke-width: 1; opacity: 1;"></line><line transform="translate(765,0)" x2="0" y2="-687.6" style="fill: none; stroke: #ddd; stroke-width: 1; opacity: 1;"></line><line transform="translate(805,0)" x2="0" y2="-687.6" style="fill: none; stroke: #ddd; stroke-width: 1; opacity: 1;"></line><line transform="translate(846,0)" x2="0" y2="-687.6" style="fill: none; stroke: #ddd; stroke-width: 1; opacity: 1;"></line><line transform="translate(886,0)" x2="0" y2="-687.6" style="fill: none; stroke: #ddd; stroke-width: 1; opacity: 1;"></line></g></g></g></g><g class="mark-group role-axis"><g transform="translate(0.5,688.1)"><path class="background" d="M0,0h0v0h0Z" style="pointer-events: none; fill: none;"></path><g><g class="mark-rule role-axis-tick" style="pointer-events: none;"><line transform="translate(0,0)" x2="0" y2="5" style="fill: none; stroke: #888; stroke-width: 1; opacity: 1;"></line><line transform="translate(40,0)" x2="0" y2="5" style="fill: none; stroke: #888; stroke-width: 1; opacity: 1;"></line><line transform="translate(81,0)" x2="0" y2="5" style="fill: none; stroke: #888; stroke-width: 1; opacity: 1;"></line><line transform="translate(121,0)" x2="0" y2="5" style="fill: none; stroke: #888; stroke-width: 1; opacity: 1;"></line><line transform="translate(161,0)" x2="0" y2="5" style="fill: none; stroke: #888; stroke-width: 1; opacity: 1;"></line><line transform="translate(201,0)" x2="0" y2="5" style="fill: none; stroke: #888; stroke-width: 1; opacity: 1;"></line><line transform="translate(242,0)" x2="0" y2="5" style="fill: none; stroke: #888; stroke-width: 1; opacity: 1;"></line><line transform="translate(282,0)" x2="0" y2="5" style="fill: none; stroke: #888; stroke-width: 1; opacity: 1;"></line><line transform="translate(322,0)" x2="0" y2="5" style="fill: none; stroke: #888; stroke-width: 1; opacity: 1;"></line><line transform="translate(362,0)" x2="0" y2="5" style="fill: none; stroke: #888; stroke-width: 1; opacity: 1;"></line><line transform="translate(403,0)" x2="0" y2="5" style="fill: none; stroke: #888; stroke-width: 1; opacity: 1;"></line><line transform="translate(443,0)" x2="0" y2="5" style="fill: none; stroke: #888; stroke-width: 1; opacity: 1;"></line><line transform="translate(483,0)" x2="0" y2="5" style="fill: none; stroke: #888; stroke-width: 1; opacity: 1;"></line><line transform="translate(523,0)" x2="0" y2="5" style="fill: none; stroke: #888; stroke-width: 1; opacity: 1;"></line><line transform="translate(564,0)" x2="0" y2="5" style="fill: none; stroke: #888; stroke-width: 1; opacity: 1;"></line><line transform="translate(604,0)" x2="0" y2="5" style="fill: none; stroke: #888; stroke-width: 1; opacity: 1;"></line><line transform="translate(644,0)" x2="0" y2="5" style="fill: none; stroke: #888; stroke-width: 1; opacity: 1;"></line><line transform="translate(685,0)" x2="0" y2="5" style="fill: none; stroke: #888; stroke-width: 1; opacity: 1;"></line><line transform="translate(725,0)" x2="0" y2="5" style="fill: none; stroke: #888; stroke-width: 1; opacity: 1;"></line><line transform="translate(765,0)" x2="0" y2="5" style="fill: none; stroke: #888; stroke-width: 1; opacity: 1;"></line><line transform="translate(805,0)" x2="0" y2="5" style="fill: none; stroke: #888; stroke-width: 1; opacity: 1;"></line><line transform="translate(846,0)" x2="0" y2="5" style="fill: none; stroke: #888; stroke-width: 1; opacity: 1;"></line><line transform="translate(886,0)" x2="0" y2="5" style="fill: none; stroke: #888; stroke-width: 1; opacity: 1;"></line></g><g class="mark-text role-axis-label" style="pointer-events: none;"><text text-anchor="start" transform="translate(0,25)" style="font-family: sans-serif; font-size: 23.400000000000002px; fill: #000; opacity: 1;">0</text><text text-anchor="middle" transform="translate(40.266666666666666,25)" style="font-family: sans-serif; font-size: 23.400000000000002px; fill: #000; opacity: 0;">20</text><text text-anchor="middle" transform="translate(80.53333333333333,25)" style="font-family: sans-serif; font-size: 23.400000000000002px; fill: #000; opacity: 1;">40</text><text text-anchor="middle" transform="translate(120.8,25)" style="font-family: sans-serif; font-size: 23.400000000000002px; fill: #000; opacity: 0;">60</text><text text-anchor="middle" transform="translate(161.06666666666666,25)" style="font-family: sans-serif; font-size: 23.400000000000002px; fill: #000; opacity: 1;">80</text><text text-anchor="middle" transform="translate(201.33333333333331,25)" style="font-family: sans-serif; font-size: 23.400000000000002px; fill: #000; opacity: 0;">100</text><text text-anchor="middle" transform="translate(241.6,25)" style="font-family: sans-serif; font-size: 23.400000000000002px; fill: #000; opacity: 1;">120</text><text text-anchor="middle" transform="translate(281.8666666666667,25)" style="font-family: sans-serif; font-size: 23.400000000000002px; fill: #000; opacity: 0;">140</text><text text-anchor="middle" transform="translate(322.1333333333333,25)" style="font-family: sans-serif; font-size: 23.400000000000002px; fill: #000; opacity: 1;">160</text><text text-anchor="middle" transform="translate(362.40000000000003,25)" style="font-family: sans-serif; font-size: 23.400000000000002px; fill: #000; opacity: 0;">180</text><text text-anchor="middle" transform="translate(402.66666666666663,25)" style="font-family: sans-serif; font-size: 23.400000000000002px; fill: #000; opacity: 1;">200</text><text text-anchor="middle" transform="translate(442.93333333333334,25)" style="font-family: sans-serif; font-size: 23.400000000000002px; fill: #000; opacity: 0;">220</text><text text-anchor="middle" transform="translate(483.2,25)" style="font-family: sans-serif; font-size: 23.400000000000002px; fill: #000; opacity: 1;">240</text><text text-anchor="middle" transform="translate(523.4666666666666,25)" style="font-family: sans-serif; font-size: 23.400000000000002px; fill: #000; opacity: 0;">260</text><text text-anchor="middle" transform="translate(563.7333333333333,25)" style="font-family: sans-serif; font-size: 23.400000000000002px; fill: #000; opacity: 1;">280</text><text text-anchor="middle" transform="translate(604,25)" style="font-family: sans-serif; font-size: 23.400000000000002px; fill: #000; opacity: 0;">300</text><text text-anchor="middle" transform="translate(644.2666666666667,25)" style="font-family: sans-serif; font-size: 23.400000000000002px; fill: #000; opacity: 1;">320</text><text text-anchor="middle" transform="translate(684.5333333333333,25)" style="font-family: sans-serif; font-size: 23.400000000000002px; fill: #000; opacity: 0;">340</text><text text-anchor="middle" transform="translate(724.8000000000001,25)" style="font-family: sans-serif; font-size: 23.400000000000002px; fill: #000; opacity: 1;">360</text><text text-anchor="middle" transform="translate(765.0666666666667,25)" style="font-family: sans-serif; font-size: 23.400000000000002px; fill: #000; opacity: 0;">380</text><text text-anchor="middle" transform="translate(805.3333333333333,25)" style="font-family: sans-serif; font-size: 23.400000000000002px; fill: #000; opacity: 1;">400</text><text text-anchor="middle" transform="translate(845.6,25)" style="font-family: sans-serif; font-size: 23.400000000000002px; fill: #000; opacity: 0;">420</text><text text-anchor="middle" transform="translate(885.8666666666667,25)" style="font-family: sans-serif; font-size: 23.400000000000002px; fill: #000; opacity: 1;">440</text></g><g class="mark-rule role-axis-domain" style="pointer-events: none;"><line transform="translate(0,0)" x2="906" y2="0" style="fill: none; stroke: #888; stroke-width: 1; opacity: 1;"></line></g><g class="mark-text role-axis-title" style="pointer-events: none;"><text text-anchor="middle" transform="translate(453,54.400000000000006)" style="font-family: sans-serif; font-size: 26px; font-weight: bold; fill: #000; opacity: 1;">Anzahl</text></g></g></g></g><g class="mark-group role-axis"><g transform="translate(0.5,0.5)"><path class="background" d="M0,0h0v0h0Z" style="pointer-events: none; fill: none;"></path><g><g class="mark-rule role-axis-tick" style="pointer-events: none;"><line transform="translate(0,1)" x2="-5" y2="0" style="fill: none; stroke: #888; stroke-width: 1; opacity: 1;"></line><line transform="translate(0,5)" x2="-5" y2="0" style="fill: none; stroke: #888; stroke-width: 1; opacity: 1;"></line><line transform="translate(0,9)" x2="-5" y2="0" style="fill: none; stroke: #888; stroke-width: 1; opacity: 1;"></line><line transform="translate(0,13)" x2="-5" y2="0" style="fill: none; stroke: #888; stroke-width: 1; opacity: 1;"></line><line transform="translate(0,17)" x2="-5" y2="0" style="fill: none; stroke: #888; stroke-width: 1; opacity: 1;"></line><line transform="translate(0,21)" x2="-5" y2="0" style="fill: none; stroke: #888; stroke-width: 1; opacity: 1;"></line><line transform="translate(0,25)" x2="-5" y2="0" style="fill: none; stroke: #888; stroke-width: 1; opacity: 1;"></line><line transform="translate(0,29)" x2="-5" y2="0" style="fill: none; stroke: #888; stroke-width: 1; opacity: 1;"></line><line transform="translate(0,33)" x2="-5" y2="0" style="fill: none; stroke: #888; stroke-width: 1; opacity: 1;"></line><line transform="translate(0,37)" x2="-5" y2="0" style="fill: none; stroke: #888; stroke-width: 1; opacity: 1;"></line><line transform="translate(0,41)" x2="-5" y2="0" style="fill: none; stroke: #888; stroke-width: 1; opacity: 1;"></line><line transform="translate(0,45)" x2="-5" y2="0" style="fill: none; stroke: #888; stroke-width: 1; opacity: 1;"></line><line transform="translate(0,49)" x2="-5" y2="0" style="fill: none; stroke: #888; stroke-width: 1; opacity: 1;"></line><line transform="translate(0,53)" x2="-5" y2="0" style="fill: none; stroke: #888; stroke-width: 1; opacity: 1;"></line><line transform="translate(0,57)" x2="-5" y2="0" style="fill: none; stroke: #888; stroke-width: 1; opacity: 1;"></line><line transform="translate(0,61)" x2="-5" y2="0" style="fill: none; stroke: #888; stroke-width: 1; opacity: 1;"></line><line transform="translate(0,65)" x2="-5" y2="0" style="fill: none; stroke: #888; stroke-width: 1; opacity: 1;"></line><line transform="translate(0,69)" x2="-5" y2="0" style="fill: none; stroke: #888; stroke-width: 1; opacity: 1;"></line><line transform="translate(0,73)" x2="-5" y2="0" style="fill: none; stroke: #888; stroke-width: 1; opacity: 1;"></line><line transform="translate(0,77)" x2="-5" y2="0" style="fill: none; stroke: #888; stroke-width: 1; opacity: 1;"></line><line transform="translate(0,81)" x2="-5" y2="0" style="fill: none; stroke: #888; stroke-width: 1; opacity: 1;"></line><line transform="translate(0,85)" x2="-5" y2="0" style="fill: none; stroke: #888; stroke-width: 1; opacity: 1;"></line><line transform="translate(0,89)" x2="-5" y2="0" style="fill: none; stroke: #888; stroke-width: 1; opacity: 1;"></line><line transform="translate(0,93)" x2="-5" y2="0" style="fill: none; stroke: #888; stroke-width: 1; opacity: 1;"></line><line transform="translate(0,97)" x2="-5" y2="0" style="fill: none; stroke: #888; stroke-width: 1; opacity: 1;"></line><line transform="translate(0,101)" x2="-5" y2="0" style="fill: none; stroke: #888; stroke-width: 1; opacity: 1;"></line><line transform="translate(0,105)" x2="-5" y2="0" style="fill: none; stroke: #888; stroke-width: 1; opacity: 1;"></line><line transform="translate(0,109)" x2="-5" y2="0" style="fill: none; stroke: #888; stroke-width: 1; opacity: 1;"></line><line transform="translate(0,113)" x2="-5" y2="0" style="fill: none; stroke: #888; stroke-width: 1; opacity: 1;"></line><line transform="translate(0,117)" x2="-5" y2="0" style="fill: none; stroke: #888; stroke-width: 1; opacity: 1;"></line><line transform="translate(0,121)" x2="-5" y2="0" style="fill: none; stroke: #888; stroke-width: 1; opacity: 1;"></line><line transform="translate(0,125)" x2="-5" y2="0" style="fill: none; stroke: #888; stroke-width: 1; opacity: 1;"></line><line transform="translate(0,129)" x2="-5" y2="0" style="fill: none; stroke: #888; stroke-width: 1; opacity: 1;"></line><line transform="translate(0,133)" x2="-5" y2="0" style="fill: none; stroke: #888; stroke-width: 1; opacity: 1;"></line><line transform="translate(0,137)" x2="-5" y2="0" style="fill: none; stroke: #888; stroke-width: 1; opacity: 1;"></line><line transform="translate(0,141)" x2="-5" y2="0" style="fill: none; stroke: #888; stroke-width: 1; opacity: 1;"></line><line transform="translate(0,145)" x2="-5" y2="0" style="fill: none; stroke: #888; stroke-width: 1; opacity: 1;"></line><line transform="translate(0,149)" x2="-5" y2="0" style="fill: none; stroke: #888; stroke-width: 1; opacity: 1;"></line><line transform="translate(0,153)" x2="-5" y2="0" style="fill: none; stroke: #888; stroke-width: 1; opacity: 1;"></line><line transform="translate(0,157)" x2="-5" y2="0" style="fill: none; stroke: #888; stroke-width: 1; opacity: 1;"></line><line transform="translate(0,161)" x2="-5" y2="0" style="fill: none; stroke: #888; stroke-width: 1; opacity: 1;"></line><line transform="translate(0,165)" x2="-5" y2="0" style="fill: none; stroke: #888; stroke-width: 1; opacity: 1;"></line><line transform="translate(0,169)" x2="-5" y2="0" style="fill: none; stroke: #888; stroke-width: 1; opacity: 1;"></line><line transform="translate(0,173)" x2="-5" y2="0" style="fill: none; stroke: #888; stroke-width: 1; opacity: 1;"></line><line transform="translate(0,177)" x2="-5" y2="0" style="fill: none; stroke: #888; stroke-width: 1; opacity: 1;"></line><line transform="translate(0,181)" x2="-5" y2="0" style="fill: none; stroke: #888; stroke-width: 1; opacity: 1;"></line><line transform="translate(0,185)" x2="-5" y2="0" style="fill: none; stroke: #888; stroke-width: 1; opacity: 1;"></line><line transform="translate(0,189)" x2="-5" y2="0" style="fill: none; stroke: #888; stroke-width: 1; opacity: 1;"></line><line transform="translate(0,193)" x2="-5" y2="0" style="fill: none; stroke: #888; stroke-width: 1; opacity: 1;"></line><line transform="translate(0,197)" x2="-5" y2="0" style="fill: none; stroke: #888; stroke-width: 1; opacity: 1;"></line><line transform="translate(0,201)" x2="-5" y2="0" style="fill: none; stroke: #888; stroke-width: 1; opacity: 1;"></line><line transform="translate(0,205)" x2="-5" y2="0" style="fill: none; stroke: #888; stroke-width: 1; opacity: 1;"></line><line transform="translate(0,209)" x2="-5" y2="0" style="fill: none; stroke: #888; stroke-width: 1; opacity: 1;"></line><line transform="translate(0,213)" x2="-5" y2="0" style="fill: none; stroke: #888; stroke-width: 1; opacity: 1;"></line><line transform="translate(0,217)" x2="-5" y2="0" style="fill: none; stroke: #888; stroke-width: 1; opacity: 1;"></line><line transform="translate(0,221)" x2="-5" y2="0" style="fill: none; stroke: #888; stroke-width: 1; opacity: 1;"></line><line transform="translate(0,225)" x2="-5" y2="0" style="fill: none; stroke: #888; stroke-width: 1; opacity: 1;"></line><line transform="translate(0,229)" x2="-5" y2="0" style="fill: none; stroke: #888; stroke-width: 1; opacity: 1;"></line><line transform="translate(0,233)" x2="-5" y2="0" style="fill: none; stroke: #888; stroke-width: 1; opacity: 1;"></line><line transform="translate(0,237)" x2="-5" y2="0" style="fill: none; stroke: #888; stroke-width: 1; opacity: 1;"></line><line transform="translate(0,241)" x2="-5" y2="0" style="fill: none; stroke: #888; stroke-width: 1; opacity: 1;"></line><line transform="translate(0,245)" x2="-5" y2="0" style="fill: none; stroke: #888; stroke-width: 1; opacity: 1;"></line><line transform="translate(0,249)" x2="-5" y2="0" style="fill: none; stroke: #888; stroke-width: 1; opacity: 1;"></line><line transform="translate(0,253)" x2="-5" y2="0" style="fill: none; stroke: #888; stroke-width: 1; opacity: 1;"></line><line transform="translate(0,257)" x2="-5" y2="0" style="fill: none; stroke: #888; stroke-width: 1; opacity: 1;"></line><line transform="translate(0,261)" x2="-5" y2="0" style="fill: none; stroke: #888; stroke-width: 1; opacity: 1;"></line><line transform="translate(0,265)" x2="-5" y2="0" style="fill: none; stroke: #888; stroke-width: 1; opacity: 1;"></line><line transform="translate(0,269)" x2="-5" y2="0" style="fill: none; stroke: #888; stroke-width: 1; opacity: 1;"></line><line transform="translate(0,273)" x2="-5" y2="0" style="fill: none; stroke: #888; stroke-width: 1; opacity: 1;"></line><line transform="translate(0,277)" x2="-5" y2="0" style="fill: none; stroke: #888; stroke-width: 1; opacity: 1;"></line><line transform="translate(0,281)" x2="-5" y2="0" style="fill: none; stroke: #888; stroke-width: 1; opacity: 1;"></line><line transform="translate(0,285)" x2="-5" y2="0" style="fill: none; stroke: #888; stroke-width: 1; opacity: 1;"></line><line transform="translate(0,289)" x2="-5" y2="0" style="fill: none; stroke: #888; stroke-width: 1; opacity: 1;"></line><line transform="translate(0,293)" x2="-5" y2="0" style="fill: none; stroke: #888; stroke-width: 1; opacity: 1;"></line><line transform="translate(0,297)" x2="-5" y2="0" style="fill: none; stroke: #888; stroke-width: 1; opacity: 1;"></line><line transform="translate(0,301)" x2="-5" y2="0" style="fill: none; stroke: #888; stroke-width: 1; opacity: 1;"></line><line transform="translate(0,305)" x2="-5" y2="0" style="fill: none; stroke: #888; stroke-width: 1; opacity: 1;"></line><line transform="translate(0,309)" x2="-5" y2="0" style="fill: none; stroke: #888; stroke-width: 1; opacity: 1;"></line><line transform="translate(0,313)" x2="-5" y2="0" style="fill: none; stroke: #888; stroke-width: 1; opacity: 1;"></line><line transform="translate(0,317)" x2="-5" y2="0" style="fill: none; stroke: #888; stroke-width: 1; opacity: 1;"></line><line transform="translate(0,321)" x2="-5" y2="0" style="fill: none; stroke: #888; stroke-width: 1; opacity: 1;"></line><line transform="translate(0,325)" x2="-5" y2="0" style="fill: none; stroke: #888; stroke-width: 1; opacity: 1;"></line><line transform="translate(0,329)" x2="-5" y2="0" style="fill: none; stroke: #888; stroke-width: 1; opacity: 1;"></line><line transform="translate(0,333)" x2="-5" y2="0" style="fill: none; stroke: #888; stroke-width: 1; opacity: 1;"></line><line transform="translate(0,337)" x2="-5" y2="0" style="fill: none; stroke: #888; stroke-width: 1; opacity: 1;"></line><line transform="translate(0,341)" x2="-5" y2="0" style="fill: none; stroke: #888; stroke-width: 1; opacity: 1;"></line><line transform="translate(0,345)" x2="-5" y2="0" style="fill: none; stroke: #888; stroke-width: 1; opacity: 1;"></line><line transform="translate(0,349)" x2="-5" y2="0" style="fill: none; stroke: #888; stroke-width: 1; opacity: 1;"></line><line transform="translate(0,353)" x2="-5" y2="0" style="fill: none; stroke: #888; stroke-width: 1; opacity: 1;"></line><line transform="translate(0,357)" x2="-5" y2="0" style="fill: none; stroke: #888; stroke-width: 1; opacity: 1;"></line><line transform="translate(0,361)" x2="-5" y2="0" style="fill: none; stroke: #888; stroke-width: 1; opacity: 1;"></line><line transform="translate(0,365)" x2="-5" y2="0" style="fill: none; stroke: #888; stroke-width: 1; opacity: 1;"></line><line transform="translate(0,369)" x2="-5" y2="0" style="fill: none; stroke: #888; stroke-width: 1; opacity: 1;"></line><line transform="translate(0,373)" x2="-5" y2="0" style="fill: none; stroke: #888; stroke-width: 1; opacity: 1;"></line><line transform="translate(0,377)" x2="-5" y2="0" style="fill: none; stroke: #888; stroke-width: 1; opacity: 1;"></line><line transform="translate(0,381)" x2="-5" y2="0" style="fill: none; stroke: #888; stroke-width: 1; opacity: 1;"></line><line transform="translate(0,385)" x2="-5" y2="0" style="fill: none; stroke: #888; stroke-width: 1; opacity: 1;"></line><line transform="translate(0,389)" x2="-5" y2="0" style="fill: none; stroke: #888; stroke-width: 1; opacity: 1;"></line><line transform="translate(0,393)" x2="-5" y2="0" style="fill: none; stroke: #888; stroke-width: 1; opacity: 1;"></line><line transform="translate(0,397)" x2="-5" y2="0" style="fill: none; stroke: #888; stroke-width: 1; opacity: 1;"></line><line transform="translate(0,401)" x2="-5" y2="0" style="fill: none; stroke: #888; stroke-width: 1; opacity: 1;"></line><line transform="translate(0,405)" x2="-5" y2="0" style="fill: none; stroke: #888; stroke-width: 1; opacity: 1;"></line><line transform="translate(0,409)" x2="-5" y2="0" style="fill: none; stroke: #888; stroke-width: 1; opacity: 1;"></line><line transform="translate(0,413)" x2="-5" y2="0" style="fill: none; stroke: #888; stroke-width: 1; opacity: 1;"></line><line transform="translate(0,417)" x2="-5" y2="0" style="fill: none; stroke: #888; stroke-width: 1; opacity: 1;"></line><line transform="translate(0,421)" x2="-5" y2="0" style="fill: none; stroke: #888; stroke-width: 1; opacity: 1;"></line><line transform="translate(0,425)" x2="-5" y2="0" style="fill: none; stroke: #888; stroke-width: 1; opacity: 1;"></line><line transform="translate(0,429)" x2="-5" y2="0" style="fill: none; stroke: #888; stroke-width: 1; opacity: 1;"></line><line transform="translate(0,433)" x2="-5" y2="0" style="fill: none; stroke: #888; stroke-width: 1; opacity: 1;"></line><line transform="translate(0,437)" x2="-5" y2="0" style="fill: none; stroke: #888; stroke-width: 1; opacity: 1;"></line><line transform="translate(0,441)" x2="-5" y2="0" style="fill: none; stroke: #888; stroke-width: 1; opacity: 1;"></line><line transform="translate(0,445)" x2="-5" y2="0" style="fill: none; stroke: #888; stroke-width: 1; opacity: 1;"></line><line transform="translate(0,449)" x2="-5" y2="0" style="fill: none; stroke: #888; stroke-width: 1; opacity: 1;"></line><line transform="translate(0,453)" x2="-5" y2="0" style="fill: none; stroke: #888; stroke-width: 1; opacity: 1;"></line><line transform="translate(0,457)" x2="-5" y2="0" style="fill: none; stroke: #888; stroke-width: 1; opacity: 1;"></line><line transform="translate(0,461)" x2="-5" y2="0" style="fill: none; stroke: #888; stroke-width: 1; opacity: 1;"></line><line transform="translate(0,465)" x2="-5" y2="0" style="fill: none; stroke: #888; stroke-width: 1; opacity: 1;"></line><line transform="translate(0,469)" x2="-5" y2="0" style="fill: none; stroke: #888; stroke-width: 1; opacity: 1;"></line><line transform="translate(0,473)" x2="-5" y2="0" style="fill: none; stroke: #888; stroke-width: 1; opacity: 1;"></line><line transform="translate(0,477)" x2="-5" y2="0" style="fill: none; stroke: #888; stroke-width: 1; opacity: 1;"></line><line transform="translate(0,481)" x2="-5" y2="0" style="fill: none; stroke: #888; stroke-width: 1; opacity: 1;"></line><line transform="translate(0,485)" x2="-5" y2="0" style="fill: none; stroke: #888; stroke-width: 1; opacity: 1;"></line><line transform="translate(0,489)" x2="-5" y2="0" style="fill: none; stroke: #888; stroke-width: 1; opacity: 1;"></line><line transform="translate(0,493)" x2="-5" y2="0" style="fill: none; stroke: #888; stroke-width: 1; opacity: 1;"></line><line transform="translate(0,497)" x2="-5" y2="0" style="fill: none; stroke: #888; stroke-width: 1; opacity: 1;"></line><line transform="translate(0,501)" x2="-5" y2="0" style="fill: none; stroke: #888; stroke-width: 1; opacity: 1;"></line><line transform="translate(0,505)" x2="-5" y2="0" style="fill: none; stroke: #888; stroke-width: 1; opacity: 1;"></line><line transform="translate(0,509)" x2="-5" y2="0" style="fill: none; stroke: #888; stroke-width: 1; opacity: 1;"></line><line transform="translate(0,513)" x2="-5" y2="0" style="fill: none; stroke: #888; stroke-width: 1; opacity: 1;"></line><line transform="translate(0,517)" x2="-5" y2="0" style="fill: none; stroke: #888; stroke-width: 1; opacity: 1;"></line><line transform="translate(0,521)" x2="-5" y2="0" style="fill: none; stroke: #888; stroke-width: 1; opacity: 1;"></line><line transform="translate(0,525)" x2="-5" y2="0" style="fill: none; stroke: #888; stroke-width: 1; opacity: 1;"></line><line transform="translate(0,529)" x2="-5" y2="0" style="fill: none; stroke: #888; stroke-width: 1; opacity: 1;"></line><line transform="translate(0,533)" x2="-5" y2="0" style="fill: none; stroke: #888; stroke-width: 1; opacity: 1;"></line><line transform="translate(0,537)" x2="-5" y2="0" style="fill: none; stroke: #888; stroke-width: 1; opacity: 1;"></line><line transform="translate(0,541)" x2="-5" y2="0" style="fill: none; stroke: #888; stroke-width: 1; opacity: 1;"></line><line transform="translate(0,545)" x2="-5" y2="0" style="fill: none; stroke: #888; stroke-width: 1; opacity: 1;"></line><line transform="translate(0,549)" x2="-5" y2="0" style="fill: none; stroke: #888; stroke-width: 1; opacity: 1;"></line><line transform="translate(0,553)" x2="-5" y2="0" style="fill: none; stroke: #888; stroke-width: 1; opacity: 1;"></line><line transform="translate(0,557)" x2="-5" y2="0" style="fill: none; stroke: #888; stroke-width: 1; opacity: 1;"></line><line transform="translate(0,561)" x2="-5" y2="0" style="fill: none; stroke: #888; stroke-width: 1; opacity: 1;"></line><line transform="translate(0,565)" x2="-5" y2="0" style="fill: none; stroke: #888; stroke-width: 1; opacity: 1;"></line><line transform="translate(0,569)" x2="-5" y2="0" style="fill: none; stroke: #888; stroke-width: 1; opacity: 1;"></line><line transform="translate(0,573)" x2="-5" y2="0" style="fill: none; stroke: #888; stroke-width: 1; opacity: 1;"></line><line transform="translate(0,577)" x2="-5" y2="0" style="fill: none; stroke: #888; stroke-width: 1; opacity: 1;"></line><line transform="translate(0,581)" x2="-5" y2="0" style="fill: none; stroke: #888; stroke-width: 1; opacity: 1;"></line><line transform="translate(0,585)" x2="-5" y2="0" style="fill: none; stroke: #888; stroke-width: 1; opacity: 1;"></line><line transform="translate(0,589)" x2="-5" y2="0" style="fill: none; stroke: #888; stroke-width: 1; opacity: 1;"></line><line transform="translate(0,593)" x2="-5" y2="0" style="fill: none; stroke: #888; stroke-width: 1; opacity: 1;"></line><line transform="translate(0,597)" x2="-5" y2="0" style="fill: none; stroke: #888; stroke-width: 1; opacity: 1;"></line><line transform="translate(0,601)" x2="-5" y2="0" style="fill: none; stroke: #888; stroke-width: 1; opacity: 1;"></line><line transform="translate(0,605)" x2="-5" y2="0" style="fill: none; stroke: #888; stroke-width: 1; opacity: 1;"></line><line transform="translate(0,609)" x2="-5" y2="0" style="fill: none; stroke: #888; stroke-width: 1; opacity: 1;"></line><line transform="translate(0,613)" x2="-5" y2="0" style="fill: none; stroke: #888; stroke-width: 1; opacity: 1;"></line><line transform="translate(0,617)" x2="-5" y2="0" style="fill: none; stroke: #888; stroke-width: 1; opacity: 1;"></line><line transform="translate(0,621)" x2="-5" y2="0" style="fill: none; stroke: #888; stroke-width: 1; opacity: 1;"></line><line transform="translate(0,625)" x2="-5" y2="0" style="fill: none; stroke: #888; stroke-width: 1; opacity: 1;"></line><line transform="translate(0,629)" x2="-5" y2="0" style="fill: none; stroke: #888; stroke-width: 1; opacity: 1;"></line><line transform="translate(0,633)" x2="-5" y2="0" style="fill: none; stroke: #888; stroke-width: 1; opacity: 1;"></line><line transform="translate(0,637)" x2="-5" y2="0" style="fill: none; stroke: #888; stroke-width: 1; opacity: 1;"></line><line transform="translate(0,641)" x2="-5" y2="0" style="fill: none; stroke: #888; stroke-width: 1; opacity: 1;"></line><line transform="translate(0,645)" x2="-5" y2="0" style="fill: none; stroke: #888; stroke-width: 1; opacity: 1;"></line><line transform="translate(0,649)" x2="-5" y2="0" style="fill: none; stroke: #888; stroke-width: 1; opacity: 1;"></line><line transform="translate(0,653)" x2="-5" y2="0" style="fill: none; stroke: #888; stroke-width: 1; opacity: 1;"></line><line transform="translate(0,657)" x2="-5" y2="0" style="fill: none; stroke: #888; stroke-width: 1; opacity: 1;"></line><line transform="translate(0,661)" x2="-5" y2="0" style="fill: none; stroke: #888; stroke-width: 1; opacity: 1;"></line><line transform="translate(0,665)" x2="-5" y2="0" style="fill: none; stroke: #888; stroke-width: 1; opacity: 1;"></line><line transform="translate(0,669)" x2="-5" y2="0" style="fill: none; stroke: #888; stroke-width: 1; opacity: 1;"></line><line transform="translate(0,673)" x2="-5" y2="0" style="fill: none; stroke: #888; stroke-width: 1; opacity: 1;"></line><line transform="translate(0,677)" x2="-5" y2="0" style="fill: none; stroke: #888; stroke-width: 1; opacity: 1;"></line><line transform="translate(0,681)" x2="-5" y2="0" style="fill: none; stroke: #888; stroke-width: 1; opacity: 1;"></line><line transform="translate(0,685)" x2="-5" y2="0" style="fill: none; stroke: #888; stroke-width: 1; opacity: 1;"></line></g><g class="mark-rule role-axis-domain" style="pointer-events: none;"><line transform="translate(0,0)" x2="0" y2="687.6" style="fill: none; stroke: #888; stroke-width: 1; opacity: 1;"></line></g><g class="mark-text role-axis-title" style="pointer-events: none;"><text text-anchor="middle" transform="translate(-10,343.8) rotate(-90) translate(0,-5)" style="font-family: sans-serif; font-size: 26px; font-weight: bold; fill: #000; opacity: 1;">Hieroglyphen</text></g></g></g></g><g class="mark-rect role-mark marks"><path d="M0,0h2.013333333333333v3.6h-2.013333333333333Z" style="fill: #4c78a8;"></path><path d="M0,204h6.04v3.6h-6.04Z" style="fill: #4c78a8;"></path><path d="M0,336h10.066666666666666v3.6h-10.066666666666666Z" style="fill: #4c78a8;"></path><path d="M0,208h6.04v3.6h-6.04Z" style="fill: #4c78a8;"></path><path d="M0,4h2.013333333333333v3.6h-2.013333333333333Z" style="fill: #4c78a8;"></path><path d="M0,340h10.066666666666666v3.6h-10.066666666666666Z" style="fill: #4c78a8;"></path><path d="M0,212h6.04v3.6h-6.04Z" style="fill: #4c78a8;"></path><path d="M0,216h6.04v3.6h-6.04Z" style="fill: #4c78a8;"></path><path d="M0,220h6.04v3.6h-6.04Z" style="fill: #4c78a8;"></path><path d="M0,560h48.32v3.6h-48.32Z" style="fill: #4c78a8;"></path><path d="M0,660h368.44v3.6h-368.44Z" style="fill: #4c78a8;"></path><path d="M0,516h34.22666666666667v3.6h-34.22666666666667Z" style="fill: #4c78a8;"></path><path d="M0,8h2.013333333333333v3.6h-2.013333333333333Z" style="fill: #4c78a8;"></path><path d="M0,620h114.76v3.6h-114.76Z" style="fill: #4c78a8;"></path><path d="M0,624h118.78666666666668v3.6h-118.78666666666668Z" style="fill: #4c78a8;"></path><path d="M0,148h4.026666666666666v3.6h-4.026666666666666Z" style="fill: #4c78a8;"></path><path d="M0,592h74.49333333333334v3.6h-74.49333333333334Z" style="fill: #4c78a8;"></path><path d="M0,616h100.66666666666666v3.6h-100.66666666666666Z" style="fill: #4c78a8;"></path><path d="M0,344h10.066666666666666v3.6h-10.066666666666666Z" style="fill: #4c78a8;"></path><path d="M0,12h2.013333333333333v3.6h-2.013333333333333Z" style="fill: #4c78a8;"></path><path d="M0,476h24.16v3.6h-24.16Z" style="fill: #4c78a8;"></path><path d="M0,224h6.04v3.6h-6.04Z" style="fill: #4c78a8;"></path><path d="M0,584h72.48v3.6h-72.48Z" style="fill: #4c78a8;"></path><path d="M0,372h12.08v3.6h-12.08Z" style="fill: #4c78a8;"></path><path d="M0,16h2.013333333333333v3.6h-2.013333333333333Z" style="fill: #4c78a8;"></path><path d="M0,384h14.093333333333334v3.6h-14.093333333333334Z" style="fill: #4c78a8;"></path><path d="M0,20h2.013333333333333v3.6h-2.013333333333333Z" style="fill: #4c78a8;"></path><path d="M0,448h20.133333333333333v3.6h-20.133333333333333Z" style="fill: #4c78a8;"></path><path d="M0,644h245.6266666666667v3.6h-245.6266666666667Z" style="fill: #4c78a8;"></path><path d="M0,452h20.133333333333333v3.6h-20.133333333333333Z" style="fill: #4c78a8;"></path><path d="M0,24h2.013333333333333v3.6h-2.013333333333333Z" style="fill: #4c78a8;"></path><path d="M0,412h16.106666666666666v3.6h-16.106666666666666Z" style="fill: #4c78a8;"></path><path d="M0,388h14.093333333333334v3.6h-14.093333333333334Z" style="fill: #4c78a8;"></path><path d="M0,376h12.08v3.6h-12.08Z" style="fill: #4c78a8;"></path><path d="M0,28h2.013333333333333v3.6h-2.013333333333333Z" style="fill: #4c78a8;"></path><path d="M0,32h2.013333333333333v3.6h-2.013333333333333Z" style="fill: #4c78a8;"></path><path d="M0,36h2.013333333333333v3.6h-2.013333333333333Z" style="fill: #4c78a8;"></path><path d="M0,308h8.053333333333333v3.6h-8.053333333333333Z" style="fill: #4c78a8;"></path><path d="M0,40h2.013333333333333v3.6h-2.013333333333333Z" style="fill: #4c78a8;"></path><path d="M0,44h2.013333333333333v3.6h-2.013333333333333Z" style="fill: #4c78a8;"></path><path d="M0,416h16.106666666666666v3.6h-16.106666666666666Z" style="fill: #4c78a8;"></path><path d="M0,48h2.013333333333333v3.6h-2.013333333333333Z" style="fill: #4c78a8;"></path><path d="M0,456h20.133333333333333v3.6h-20.133333333333333Z" style="fill: #4c78a8;"></path><path d="M0,228h6.04v3.6h-6.04Z" style="fill: #4c78a8;"></path><path d="M0,312h8.053333333333333v3.6h-8.053333333333333Z" style="fill: #4c78a8;"></path><path d="M0,152h4.026666666666666v3.6h-4.026666666666666Z" style="fill: #4c78a8;"></path><path d="M0,232h6.04v3.6h-6.04Z" style="fill: #4c78a8;"></path><path d="M0,580h70.46666666666667v3.6h-70.46666666666667Z" style="fill: #4c78a8;"></path><path d="M0,52h2.013333333333333v3.6h-2.013333333333333Z" style="fill: #4c78a8;"></path><path d="M0,156h4.026666666666666v3.6h-4.026666666666666Z" style="fill: #4c78a8;"></path><path d="M0,664h392.6v3.6h-392.6Z" style="fill: #4c78a8;"></path><path d="M0,160h4.026666666666666v3.6h-4.026666666666666Z" style="fill: #4c78a8;"></path><path d="M0,568h54.36v3.6h-54.36Z" style="fill: #4c78a8;"></path><path d="M0,164h4.026666666666666v3.6h-4.026666666666666Z" style="fill: #4c78a8;"></path><path d="M0,236h6.04v3.6h-6.04Z" style="fill: #4c78a8;"></path><path d="M0,596h76.50666666666667v3.6h-76.50666666666667Z" style="fill: #4c78a8;"></path><path d="M0,440h18.12v3.6h-18.12Z" style="fill: #4c78a8;"></path><path d="M0,240h6.04v3.6h-6.04Z" style="fill: #4c78a8;"></path><path d="M0,552h42.28v3.6h-42.28Z" style="fill: #4c78a8;"></path><path d="M0,420h16.106666666666666v3.6h-16.106666666666666Z" style="fill: #4c78a8;"></path><path d="M0,424h16.106666666666666v3.6h-16.106666666666666Z" style="fill: #4c78a8;"></path><path d="M0,668h396.62666666666667v3.6h-396.62666666666667Z" style="fill: #4c78a8;"></path><path d="M0,576h62.413333333333334v3.6h-62.413333333333334Z" style="fill: #4c78a8;"></path><path d="M0,56h2.013333333333333v3.6h-2.013333333333333Z" style="fill: #4c78a8;"></path><path d="M0,468h22.14666666666667v3.6h-22.14666666666667Z" style="fill: #4c78a8;"></path><path d="M0,392h14.093333333333334v3.6h-14.093333333333334Z" style="fill: #4c78a8;"></path><path d="M0,608h82.54666666666667v3.6h-82.54666666666667Z" style="fill: #4c78a8;"></path><path d="M0,60h2.013333333333333v3.6h-2.013333333333333Z" style="fill: #4c78a8;"></path><path d="M0,652h293.94666666666666v3.6h-293.94666666666666Z" style="fill: #4c78a8;"></path><path d="M0,244h6.04v3.6h-6.04Z" style="fill: #4c78a8;"></path><path d="M0,248h6.04v3.6h-6.04Z" style="fill: #4c78a8;"></path><path d="M0,252h6.04v3.6h-6.04Z" style="fill: #4c78a8;"></path><path d="M0,168h4.026666666666666v3.6h-4.026666666666666Z" style="fill: #4c78a8;"></path><path d="M0,680h732.8533333333334v3.6h-732.8533333333334Z" style="fill: #4c78a8;"></path><path d="M0,488h26.173333333333332v3.6h-26.173333333333332Z" style="fill: #4c78a8;"></path><path d="M0,256h6.04v3.6h-6.04Z" style="fill: #4c78a8;"></path><path d="M0,260h6.04v3.6h-6.04Z" style="fill: #4c78a8;"></path><path d="M0,600h76.50666666666667v3.6h-76.50666666666667Z" style="fill: #4c78a8;"></path><path d="M0,64h2.013333333333333v3.6h-2.013333333333333Z" style="fill: #4c78a8;"></path><path d="M0,264h6.04v3.6h-6.04Z" style="fill: #4c78a8;"></path><path d="M0,316h8.053333333333333v3.6h-8.053333333333333Z" style="fill: #4c78a8;"></path><path d="M0,68h2.013333333333333v3.6h-2.013333333333333Z" style="fill: #4c78a8;"></path><path d="M0,268h6.04v3.6h-6.04Z" style="fill: #4c78a8;"></path><path d="M0,272h6.04v3.6h-6.04Z" style="fill: #4c78a8;"></path><path d="M0,348h10.066666666666666v3.6h-10.066666666666666Z" style="fill: #4c78a8;"></path><path d="M0,396h14.093333333333334v3.6h-14.093333333333334Z" style="fill: #4c78a8;"></path><path d="M0,172h4.026666666666666v3.6h-4.026666666666666Z" style="fill: #4c78a8;"></path><path d="M0,532h36.24v3.6h-36.24Z" style="fill: #4c78a8;"></path><path d="M0,504h28.186666666666667v3.6h-28.186666666666667Z" style="fill: #4c78a8;"></path><path d="M0,72h2.013333333333333v3.6h-2.013333333333333Z" style="fill: #4c78a8;"></path><path d="M0,428h16.106666666666666v3.6h-16.106666666666666Z" style="fill: #4c78a8;"></path><path d="M0,540h38.25333333333334v3.6h-38.25333333333334Z" style="fill: #4c78a8;"></path><path d="M0,76h2.013333333333333v3.6h-2.013333333333333Z" style="fill: #4c78a8;"></path><path d="M0,80h2.013333333333333v3.6h-2.013333333333333Z" style="fill: #4c78a8;"></path><path d="M0,84h2.013333333333333v3.6h-2.013333333333333Z" style="fill: #4c78a8;"></path><path d="M0,176h4.026666666666666v3.6h-4.026666666666666Z" style="fill: #4c78a8;"></path><path d="M0,88h2.013333333333333v3.6h-2.013333333333333Z" style="fill: #4c78a8;"></path><path d="M0,536h36.24v3.6h-36.24Z" style="fill: #4c78a8;"></path><path d="M0,480h24.16v3.6h-24.16Z" style="fill: #4c78a8;"></path><path d="M0,520h34.22666666666667v3.6h-34.22666666666667Z" style="fill: #4c78a8;"></path><path d="M0,684h901.9733333333334v3.6h-901.9733333333334Z" style="fill: #4c78a8;"></path><path d="M0,180h4.026666666666666v3.6h-4.026666666666666Z" style="fill: #4c78a8;"></path><path d="M0,572h60.4v3.6h-60.4Z" style="fill: #4c78a8;"></path><path d="M0,276h6.04v3.6h-6.04Z" style="fill: #4c78a8;"></path><path d="M0,556h42.28v3.6h-42.28Z" style="fill: #4c78a8;"></path><path d="M0,548h40.266666666666666v3.6h-40.266666666666666Z" style="fill: #4c78a8;"></path><path d="M0,92h2.013333333333333v3.6h-2.013333333333333Z" style="fill: #4c78a8;"></path><path d="M0,460h20.133333333333333v3.6h-20.133333333333333Z" style="fill: #4c78a8;"></path><path d="M0,96h2.013333333333333v3.6h-2.013333333333333Z" style="fill: #4c78a8;"></path><path d="M0,400h14.093333333333334v3.6h-14.093333333333334Z" style="fill: #4c78a8;"></path><path d="M0,544h38.25333333333334v3.6h-38.25333333333334Z" style="fill: #4c78a8;"></path><path d="M0,508h28.186666666666667v3.6h-28.186666666666667Z" style="fill: #4c78a8;"></path><path d="M0,492h26.173333333333332v3.6h-26.173333333333332Z" style="fill: #4c78a8;"></path><path d="M0,640h213.41333333333333v3.6h-213.41333333333333Z" style="fill: #4c78a8;"></path><path d="M0,100h2.013333333333333v3.6h-2.013333333333333Z" style="fill: #4c78a8;"></path><path d="M0,352h10.066666666666666v3.6h-10.066666666666666Z" style="fill: #4c78a8;"></path><path d="M0,104h2.013333333333333v3.6h-2.013333333333333Z" style="fill: #4c78a8;"></path><path d="M0,280h6.04v3.6h-6.04Z" style="fill: #4c78a8;"></path><path d="M0,512h32.21333333333333v3.6h-32.21333333333333Z" style="fill: #4c78a8;"></path><path d="M0,356h10.066666666666666v3.6h-10.066666666666666Z" style="fill: #4c78a8;"></path><path d="M0,524h34.22666666666667v3.6h-34.22666666666667Z" style="fill: #4c78a8;"></path><path d="M0,632h155.02666666666667v3.6h-155.02666666666667Z" style="fill: #4c78a8;"></path><path d="M0,284h6.04v3.6h-6.04Z" style="fill: #4c78a8;"></path><path d="M0,288h6.04v3.6h-6.04Z" style="fill: #4c78a8;"></path><path d="M0,628h134.89333333333332v3.6h-134.89333333333332Z" style="fill: #4c78a8;"></path><path d="M0,184h4.026666666666666v3.6h-4.026666666666666Z" style="fill: #4c78a8;"></path><path d="M0,188h4.026666666666666v3.6h-4.026666666666666Z" style="fill: #4c78a8;"></path><path d="M0,676h533.5333333333333v3.6h-533.5333333333333Z" style="fill: #4c78a8;"></path><path d="M0,464h20.133333333333333v3.6h-20.133333333333333Z" style="fill: #4c78a8;"></path><path d="M0,108h2.013333333333333v3.6h-2.013333333333333Z" style="fill: #4c78a8;"></path><path d="M0,112h2.013333333333333v3.6h-2.013333333333333Z" style="fill: #4c78a8;"></path><path d="M0,320h8.053333333333333v3.6h-8.053333333333333Z" style="fill: #4c78a8;"></path><path d="M0,292h6.04v3.6h-6.04Z" style="fill: #4c78a8;"></path><path d="M0,444h18.12v3.6h-18.12Z" style="fill: #4c78a8;"></path><path d="M0,192h4.026666666666666v3.6h-4.026666666666666Z" style="fill: #4c78a8;"></path><path d="M0,296h6.04v3.6h-6.04Z" style="fill: #4c78a8;"></path><path d="M0,564h50.33333333333333v3.6h-50.33333333333333Z" style="fill: #4c78a8;"></path><path d="M0,496h26.173333333333332v3.6h-26.173333333333332Z" style="fill: #4c78a8;"></path><path d="M0,300h6.04v3.6h-6.04Z" style="fill: #4c78a8;"></path><path d="M0,528h34.22666666666667v3.6h-34.22666666666667Z" style="fill: #4c78a8;"></path><path d="M0,116h2.013333333333333v3.6h-2.013333333333333Z" style="fill: #4c78a8;"></path><path d="M0,324h8.053333333333333v3.6h-8.053333333333333Z" style="fill: #4c78a8;"></path><path d="M0,656h360.38666666666666v3.6h-360.38666666666666Z" style="fill: #4c78a8;"></path><path d="M0,636h159.0533333333333v3.6h-159.0533333333333Z" style="fill: #4c78a8;"></path><path d="M0,120h2.013333333333333v3.6h-2.013333333333333Z" style="fill: #4c78a8;"></path><path d="M0,124h2.013333333333333v3.6h-2.013333333333333Z" style="fill: #4c78a8;"></path><path d="M0,360h10.066666666666666v3.6h-10.066666666666666Z" style="fill: #4c78a8;"></path><path d="M0,128h2.013333333333333v3.6h-2.013333333333333Z" style="fill: #4c78a8;"></path><path d="M0,588h72.48v3.6h-72.48Z" style="fill: #4c78a8;"></path><path d="M0,432h16.106666666666666v3.6h-16.106666666666666Z" style="fill: #4c78a8;"></path><path d="M0,648h267.77333333333337v3.6h-267.77333333333337Z" style="fill: #4c78a8;"></path><path d="M0,500h26.173333333333332v3.6h-26.173333333333332Z" style="fill: #4c78a8;"></path><path d="M0,196h4.026666666666666v3.6h-4.026666666666666Z" style="fill: #4c78a8;"></path><path d="M0,364h10.066666666666666v3.6h-10.066666666666666Z" style="fill: #4c78a8;"></path><path d="M0,368h10.066666666666666v3.6h-10.066666666666666Z" style="fill: #4c78a8;"></path><path d="M0,132h2.013333333333333v3.6h-2.013333333333333Z" style="fill: #4c78a8;"></path><path d="M0,136h2.013333333333333v3.6h-2.013333333333333Z" style="fill: #4c78a8;"></path><path d="M0,404h14.093333333333334v3.6h-14.093333333333334Z" style="fill: #4c78a8;"></path><path d="M0,328h8.053333333333333v3.6h-8.053333333333333Z" style="fill: #4c78a8;"></path><path d="M0,200h4.026666666666666v3.6h-4.026666666666666Z" style="fill: #4c78a8;"></path><path d="M0,604h78.52v3.6h-78.52Z" style="fill: #4c78a8;"></path><path d="M0,484h24.16v3.6h-24.16Z" style="fill: #4c78a8;"></path><path d="M0,672h467.0933333333333v3.6h-467.0933333333333Z" style="fill: #4c78a8;"></path><path d="M0,140h2.013333333333333v3.6h-2.013333333333333Z" style="fill: #4c78a8;"></path><path d="M0,380h12.08v3.6h-12.08Z" style="fill: #4c78a8;"></path><path d="M0,144h2.013333333333333v3.6h-2.013333333333333Z" style="fill: #4c78a8;"></path><path d="M0,408h14.093333333333334v3.6h-14.093333333333334Z" style="fill: #4c78a8;"></path><path d="M0,304h6.04v3.6h-6.04Z" style="fill: #4c78a8;"></path><path d="M0,436h16.106666666666666v3.6h-16.106666666666666Z" style="fill: #4c78a8;"></path><path d="M0,612h98.65333333333332v3.6h-98.65333333333332Z" style="fill: #4c78a8;"></path><path d="M0,472h22.14666666666667v3.6h-22.14666666666667Z" style="fill: #4c78a8;"></path><path d="M0,332h8.053333333333333v3.6h-8.053333333333333Z" style="fill: #4c78a8;"></path></g><g class="mark-text role-title" style="pointer-events: none;"><text text-anchor="middle" transform="translate(453,-9)" style="font-family: sans-serif; font-size: 26px; font-weight: bold; fill: #000; opacity: 1;">Hieroglyphen-Histogram (Sortiert)</text></g></g></g></g></g></svg>